# Blender 4.4.1
# www.blender.org
mtllib sgs_01.mtl
o sgs
v -2.192713 -0.381888 0.049876 1.0000 1.0000 1.0000
v 2.198666 -0.381888 0.049876 1.0000 1.0000 1.0000
v -0.544707 0.249690 -5.307062 1.0000 1.0000 1.0000
v 2.505007 -0.013657 -0.555037 1.0000 1.0000 1.0000
v 3.147457 -0.013657 -0.555037 1.0000 1.0000 1.0000
v -2.192713 0.391820 0.049875 1.0000 1.0000 1.0000
v -2.499054 -0.013657 -0.555037 1.0000 1.0000 1.0000
v 2.845373 -0.923212 2.815026 1.0000 1.0000 1.0000
v -3.141505 -0.013657 -0.555037 1.0000 1.0000 1.0000
v 1.859438 -1.244933 2.783023 1.0000 1.0000 1.0000
v 2.824229 -0.838025 2.842108 1.0000 1.0000 1.0000
v 2.192708 0.391820 0.049875 1.0000 1.0000 1.0000
v -2.499054 0.023589 -0.555038 1.0000 1.0000 1.0000
v 2.613832 -0.984551 2.782150 1.0000 1.0000 1.0000
v 2.640652 -1.143201 2.695408 1.0000 1.0000 1.0000
v -2.839420 -0.923212 2.815026 1.0000 1.0000 1.0000
v 2.229764 -1.245022 2.783307 1.0000 1.0000 1.0000
v -3.141505 0.023589 -0.555038 1.0000 1.0000 1.0000
v -1.853485 -1.244933 2.783023 1.0000 1.0000 1.0000
v 2.550426 -1.132250 2.682124 1.0000 1.0000 1.0000
v 2.229764 -0.381888 0.049876 1.0000 1.0000 1.0000
v -2.818277 -0.838025 2.842108 1.0000 1.0000 1.0000
v 2.499049 0.023589 -0.555038 1.0000 1.0000 1.0000
v 2.906794 -0.941498 2.743536 1.0000 1.0000 1.0000
v -2.607880 -0.984551 2.782150 1.0000 1.0000 1.0000
v 2.741907 -0.176400 -0.175028 1.0000 1.0000 1.0000
v -2.820418 0.000000 -0.306023 1.0000 1.0000 1.0000
v 2.949518 -0.875326 2.696281 1.0000 1.0000 1.0000
v -2.839420 0.933144 2.815026 1.0000 1.0000 1.0000
v 3.147457 -0.013657 2.780164 1.0000 1.0000 1.0000
v 2.675714 -1.169551 2.536298 1.0000 1.0000 1.0000
v -2.634699 -1.143201 2.695408 1.0000 1.0000 1.0000
v -0.970338 -0.490893 2.628032 1.0000 1.0000 1.0000
v 2.505007 -0.013657 2.780450 1.0000 1.0000 1.0000
v -2.223811 -1.245022 2.783307 1.0000 1.0000 1.0000
v 2.702073 -1.161487 2.623919 1.0000 1.0000 1.0000
v -2.544473 -1.132250 2.682124 1.0000 1.0000 1.0000
v 2.141458 -1.098400 3.235953 1.0000 1.0000 1.0000
v 1.880134 -1.286261 2.969100 1.0000 1.0000 1.0000
v -1.853485 1.254864 2.783023 1.0000 1.0000 1.0000
v 2.634528 -1.025880 2.968227 1.0000 1.0000 1.0000
v -2.223811 -0.381888 0.049876 1.0000 1.0000 1.0000
v 2.250459 -1.286350 2.969384 1.0000 1.0000 1.0000
v -2.818277 0.847957 2.842107 1.0000 1.0000 1.0000
v 2.343444 -1.098400 3.235953 1.0000 1.0000 1.0000
v 3.141500 0.023589 -0.555038 1.0000 1.0000 1.0000
v -2.900841 -0.941498 2.743536 1.0000 1.0000 1.0000
v 2.754779 -0.327110 3.235953 1.0000 1.0000 1.0000
v 3.168153 -0.054985 2.966242 1.0000 1.0000 1.0000
v -2.735955 -0.176400 -0.175028 1.0000 1.0000 1.0000
v 2.833511 0.000000 -0.306023 1.0000 1.0000 1.0000
v 2.525703 -0.054985 2.966528 1.0000 1.0000 1.0000
v -2.607880 0.994483 2.782149 1.0000 1.0000 1.0000
v 2.552794 -0.327110 3.235953 1.0000 1.0000 1.0000
v -2.943566 -0.875326 2.696281 1.0000 1.0000 1.0000
v 2.647915 -0.922541 2.569005 1.0000 1.0000 1.0000
v -3.141505 -0.013657 2.780164 1.0000 1.0000 1.0000
v 2.749742 -0.737274 2.641911 1.0000 1.0000 1.0000
v 2.839415 0.933144 2.815026 1.0000 1.0000 1.0000
v 2.735529 -0.763133 2.768320 1.0000 1.0000 1.0000
v 2.624696 -0.964786 2.714211 1.0000 1.0000 1.0000
v -2.634699 1.153133 2.695408 1.0000 1.0000 1.0000
v 2.623489 -0.923618 2.559183 1.0000 1.0000 1.0000
v -2.669761 -1.169551 2.536298 1.0000 1.0000 1.0000
v 2.617017 -0.964456 2.708618 1.0000 1.0000 1.0000
v -1.216711 0.220505 2.309071 1.0000 1.0000 1.0000
v -2.499054 -0.013657 2.780450 1.0000 1.0000 1.0000
v 2.601997 -0.965981 2.697956 1.0000 1.0000 1.0000
v 2.579883 -0.931280 2.540634 1.0000 1.0000 1.0000
v -2.223811 1.254954 2.783306 1.0000 1.0000 1.0000
v -2.696120 -1.161487 2.623919 1.0000 1.0000 1.0000
v 2.438224 -1.005438 2.471664 1.0000 1.0000 1.0000
v -2.135506 -1.098400 3.235953 1.0000 1.0000 1.0000
v 2.442122 -1.040806 2.592030 1.0000 1.0000 1.0000
v 1.853480 1.254864 2.783023 1.0000 1.0000 1.0000
v -2.544473 1.142182 2.682124 1.0000 1.0000 1.0000
v -1.874181 -1.286261 2.969100 1.0000 1.0000 1.0000
v 0.970338 -0.490893 2.628032 1.0000 1.0000 1.0000
v -2.628576 -1.025880 2.968227 1.0000 1.0000 1.0000
v -2.223811 0.391820 0.049875 1.0000 1.0000 1.0000
v -2.244507 -1.286350 2.969384 1.0000 1.0000 1.0000
v -2.900841 0.951430 2.743536 1.0000 1.0000 1.0000
v -2.337492 -1.098400 3.235953 1.0000 1.0000 1.0000
v -2.748827 -0.327110 3.235953 1.0000 1.0000 1.0000
v 2.818272 0.847957 2.842107 1.0000 1.0000 1.0000
v -2.735955 0.186332 -0.175028 1.0000 1.0000 1.0000
v -3.162200 -0.054985 2.966242 1.0000 1.0000 1.0000
v -2.519750 -0.054985 2.966528 1.0000 1.0000 1.0000
v 2.607875 0.994483 2.782149 1.0000 1.0000 1.0000
v -2.943566 0.885258 2.696281 1.0000 1.0000 1.0000
v -2.546841 -0.327110 3.235953 1.0000 1.0000 1.0000
v -2.641962 -0.922541 2.569005 1.0000 1.0000 1.0000
v -1.211761 -0.565978 2.309899 1.0000 1.0000 1.0000
v -2.743789 -0.737274 2.641911 1.0000 1.0000 1.0000
v -3.141505 0.023589 2.780164 1.0000 1.0000 1.0000
v -2.729576 -0.763133 2.768320 1.0000 1.0000 1.0000
v -2.618743 -0.964786 2.714211 1.0000 1.0000 1.0000
v -2.669761 1.179483 2.536298 1.0000 1.0000 1.0000
v -2.617536 -0.923618 2.559183 1.0000 1.0000 1.0000
v 2.634694 1.153133 2.695408 1.0000 1.0000 1.0000
v -2.611064 -0.964456 2.708618 1.0000 1.0000 1.0000
v -0.193011 -0.853822 2.949367 1.0000 1.0000 1.0000
v -2.499054 0.023589 2.780450 1.0000 1.0000 1.0000
v -2.596045 -0.965981 2.697956 1.0000 1.0000 1.0000
v -2.573930 -0.931280 2.540634 1.0000 1.0000 1.0000
v -2.696120 1.171419 2.623919 1.0000 1.0000 1.0000
v 2.223806 1.254954 2.783306 1.0000 1.0000 1.0000
v -2.432272 -1.005438 2.471664 1.0000 1.0000 1.0000
v -1.218477 0.501117 2.308775 1.0000 1.0000 1.0000
v -2.436169 -1.040806 2.592030 1.0000 1.0000 1.0000
v -2.135506 1.108331 3.235953 1.0000 1.0000 1.0000
v 2.544468 1.142182 2.682124 1.0000 1.0000 1.0000
v -1.874181 1.296192 2.969100 1.0000 1.0000 1.0000
v -2.628576 1.035811 2.968227 1.0000 1.0000 1.0000
v -2.244507 1.296282 2.969384 1.0000 1.0000 1.0000
v 2.223806 0.391820 0.049875 1.0000 1.0000 1.0000
v -2.337492 1.108331 3.235953 1.0000 1.0000 1.0000
v 2.900836 0.951430 2.743536 1.0000 1.0000 1.0000
v -2.748827 0.337042 3.235953 1.0000 1.0000 1.0000
v -3.162200 0.064917 2.966242 1.0000 1.0000 1.0000
v 2.735950 0.186332 -0.175028 1.0000 1.0000 1.0000
v -2.519750 0.064917 2.966527 1.0000 1.0000 1.0000
v -2.546841 0.337042 3.235953 1.0000 1.0000 1.0000
v 2.943561 0.885258 2.696281 1.0000 1.0000 1.0000
v 1.216711 0.220505 2.309071 1.0000 1.0000 1.0000
v -2.641962 0.932473 2.569005 1.0000 1.0000 1.0000
v -2.743789 0.747205 2.641911 1.0000 1.0000 1.0000
v 3.141500 0.023589 2.780164 1.0000 1.0000 1.0000
v -2.729576 0.773065 2.768321 1.0000 1.0000 1.0000
v -2.618743 0.974718 2.714211 1.0000 1.0000 1.0000
v -2.617536 0.933550 2.559183 1.0000 1.0000 1.0000
v 2.669756 1.179483 2.536298 1.0000 1.0000 1.0000
v -2.611064 0.974388 2.708618 1.0000 1.0000 1.0000
v 2.499049 0.023589 2.780450 1.0000 1.0000 1.0000
v 1.211761 -0.565978 2.309899 1.0000 1.0000 1.0000
v -2.573930 0.941211 2.540633 1.0000 1.0000 1.0000
v 2.696115 1.171419 2.623919 1.0000 1.0000 1.0000
v 2.135501 1.108331 3.235953 1.0000 1.0000 1.0000
v -2.432272 1.015369 2.471664 1.0000 1.0000 1.0000
v 1.874176 1.296192 2.969100 1.0000 1.0000 1.0000
v -2.436169 1.050738 2.592030 1.0000 1.0000 1.0000
v -1.085650 -0.630187 2.470667 1.0000 1.0000 1.0000
v -1.213527 -0.285366 2.309603 1.0000 1.0000 1.0000
v 2.628571 1.035811 2.968227 1.0000 1.0000 1.0000
v 2.244502 1.296282 2.969384 1.0000 1.0000 1.0000
v -0.030187 -1.016646 2.786543 1.0000 1.0000 1.0000
v 2.337487 1.108331 3.235953 1.0000 1.0000 1.0000
v 1.218477 0.501117 2.308775 1.0000 1.0000 1.0000
v 2.748821 0.337042 3.235953 1.0000 1.0000 1.0000
v -0.976375 0.468411 2.627023 1.0000 1.0000 1.0000
v 3.162195 0.064917 2.966242 1.0000 1.0000 1.0000
v -1.181398 0.265263 2.371147 1.0000 1.0000 1.0000
v 2.519745 0.064917 2.966527 1.0000 1.0000 1.0000
v 0.193011 -0.853822 2.949367 1.0000 1.0000 1.0000
v -0.544707 -0.353714 -4.109258 1.0000 1.0000 1.0000
v 2.546836 0.337042 3.235953 1.0000 1.0000 1.0000
v 2.641957 0.932473 2.569005 1.0000 1.0000 1.0000
v -1.218449 0.220506 2.320583 1.0000 1.0000 1.0000
v 1.085651 -0.630187 2.470667 1.0000 1.0000 1.0000
v 2.743784 0.747205 2.641911 1.0000 1.0000 1.0000
v 2.729571 0.773065 2.768321 1.0000 1.0000 1.0000
v -1.182604 0.456937 2.370945 1.0000 1.0000 1.0000
v 2.618738 0.974718 2.714211 1.0000 1.0000 1.0000
v -0.193011 0.667087 2.949367 1.0000 1.0000 1.0000
v 2.617531 0.933550 2.559183 1.0000 1.0000 1.0000
v -1.176448 -0.521220 2.371975 1.0000 1.0000 1.0000
v 1.213527 -0.285366 2.309603 1.0000 1.0000 1.0000
v 2.611059 0.974388 2.708618 1.0000 1.0000 1.0000
v -1.220215 0.501118 2.320288 1.0000 1.0000 1.0000
v 2.573925 0.941211 2.540633 1.0000 1.0000 1.0000
v -0.467363 -0.853822 2.949367 1.0000 1.0000 1.0000
v 0.976376 0.468411 2.627023 1.0000 1.0000 1.0000
v 2.432267 1.015369 2.471664 1.0000 1.0000 1.0000
v 2.436164 1.050738 2.592030 1.0000 1.0000 1.0000
v -1.101248 0.265781 2.383249 1.0000 1.0000 1.0000
v 0.030187 -1.016646 2.786543 1.0000 1.0000 1.0000
v -1.213499 -0.565977 2.321411 1.0000 1.0000 1.0000
v 1.181398 0.265263 2.371147 1.0000 1.0000 1.0000
v 0.529927 0.249690 -5.307062 1.0000 1.0000 1.0000
v -1.177654 -0.329546 2.371773 1.0000 1.0000 1.0000
v -1.102454 0.457454 2.383047 1.0000 1.0000 1.0000
v 1.218449 0.220506 2.320583 1.0000 1.0000 1.0000
v -0.467363 0.667087 2.949367 1.0000 1.0000 1.0000
v -1.215265 -0.285365 2.321116 1.0000 1.0000 1.0000
v 1.182604 0.456937 2.370945 1.0000 1.0000 1.0000
v 0.193011 0.667087 2.949367 1.0000 1.0000 1.0000
v -0.833355 -0.470269 1.242748 1.0000 1.0000 1.0000
v -0.177180 -0.722988 1.332516 1.0000 1.0000 1.0000
v -1.096298 -0.520703 2.384077 1.0000 1.0000 1.0000
v -0.682330 -0.333994 0.982538 1.0000 1.0000 1.0000
v 1.176448 -0.521220 2.371975 1.0000 1.0000 1.0000
v 1.220215 0.501118 2.320288 1.0000 1.0000 1.0000
v -0.686394 0.311686 0.981858 1.0000 1.0000 1.0000
v -0.399105 0.777712 0.129903 1.0000 1.0000 1.0000
v -1.097504 -0.329029 2.383875 1.0000 1.0000 1.0000
v -0.247073 -0.598421 0.977905 1.0000 1.0000 1.0000
v 1.101248 0.265781 2.383249 1.0000 1.0000 1.0000
v -1.037854 -0.565051 2.151331 1.0000 1.0000 1.0000
v 0.467363 -0.853822 2.949367 1.0000 1.0000 1.0000
v 1.213500 -0.565977 2.321411 1.0000 1.0000 1.0000
v -1.066877 -0.565031 2.343550 1.0000 1.0000 1.0000
v 1.177654 -0.329546 2.371773 1.0000 1.0000 1.0000
v -1.039620 -0.284439 2.151036 1.0000 1.0000 1.0000
v -1.071748 -0.306129 2.364747 1.0000 1.0000 1.0000
v 0.467363 0.667087 2.949367 1.0000 1.0000 1.0000
v -1.070256 -0.543316 2.364997 1.0000 1.0000 1.0000
v 1.102454 0.457454 2.383047 1.0000 1.0000 1.0000
v -0.599469 -0.598421 0.977905 1.0000 1.0000 1.0000
v -1.068643 -0.284419 2.343255 1.0000 1.0000 1.0000
v -0.399105 0.797403 0.594619 1.0000 1.0000 1.0000
v -1.044570 0.502045 2.150208 1.0000 1.0000 1.0000
v -1.073593 0.502064 2.342427 1.0000 1.0000 1.0000
v -0.644345 0.697024 0.963123 1.0000 1.0000 1.0000
v 1.215266 -0.285365 2.321116 1.0000 1.0000 1.0000
v -1.074471 0.495924 2.348505 1.0000 1.0000 1.0000
v -0.809214 -0.929966 2.715909 1.0000 1.0000 1.0000
v -1.071827 0.221452 2.342722 1.0000 1.0000 1.0000
v -1.075205 0.243167 2.364169 1.0000 1.0000 1.0000
v 0.833355 -0.470269 1.242748 1.0000 1.0000 1.0000
v 1.096298 -0.520703 2.384077 1.0000 1.0000 1.0000
v -1.042804 0.221432 2.150504 1.0000 1.0000 1.0000
v -1.076698 0.480354 2.363919 1.0000 1.0000 1.0000
v -0.399105 0.746213 -0.329227 1.0000 1.0000 1.0000
v 0.682330 -0.333994 0.982538 1.0000 1.0000 1.0000
v -1.061290 0.602611 2.447170 1.0000 1.0000 1.0000
v -1.086378 0.584158 2.478762 1.0000 1.0000 1.0000
v -0.750052 -1.004610 2.798580 1.0000 1.0000 1.0000
v 0.686394 0.311686 0.981858 1.0000 1.0000 1.0000
v 0.177180 -0.722988 1.332516 1.0000 1.0000 1.0000
v 1.097505 -0.329029 2.383875 1.0000 1.0000 1.0000
v -0.830152 0.425358 1.226669 1.0000 1.0000 1.0000
v 0.529927 -0.353714 -4.109258 1.0000 1.0000 1.0000
v -0.818131 0.446351 1.273475 1.0000 1.0000 1.0000
v -0.813101 0.919838 2.715623 1.0000 1.0000 1.0000
v 0.247073 -0.598421 0.977905 1.0000 1.0000 1.0000
v -0.680157 -0.664087 1.398412 1.0000 1.0000 1.0000
v 1.037854 -0.565051 2.151331 1.0000 1.0000 1.0000
v -0.623060 -0.700922 1.269700 1.0000 1.0000 1.0000
v 0.410600 0.777712 0.129903 1.0000 1.0000 1.0000
v 1.066877 -0.565031 2.343550 1.0000 1.0000 1.0000
v 1.039620 -0.284439 2.151036 1.0000 1.0000 1.0000
v 0.202197 0.697024 0.963123 1.0000 1.0000 1.0000
v 1.071749 -0.306129 2.364747 1.0000 1.0000 1.0000
v -0.743617 0.765784 1.280872 1.0000 1.0000 1.0000
v -0.544707 -0.390038 -3.457558 1.0000 1.0000 1.0000
v 1.070256 -0.543316 2.364997 1.0000 1.0000 1.0000
v -0.081131 0.993030 2.738453 1.0000 1.0000 1.0000
v 1.068643 -0.284419 2.343255 1.0000 1.0000 1.0000
v 0.599469 -0.598421 0.977905 1.0000 1.0000 1.0000
v 1.044570 0.502045 2.150208 1.0000 1.0000 1.0000
v -0.040499 0.953695 2.796856 1.0000 1.0000 1.0000
v 1.073593 0.502064 2.342427 1.0000 1.0000 1.0000
v -0.149444 0.831737 1.248918 1.0000 1.0000 1.0000
v 1.074471 0.495924 2.348505 1.0000 1.0000 1.0000
v 0.644345 0.697024 0.963123 1.0000 1.0000 1.0000
v 1.071827 0.221452 2.342722 1.0000 1.0000 1.0000
v -0.116105 0.790881 1.164981 1.0000 1.0000 1.0000
v 1.075206 0.243167 2.364169 1.0000 1.0000 1.0000
v 0.410600 0.797403 0.594619 1.0000 1.0000 1.0000
v 1.042804 0.221432 2.150504 1.0000 1.0000 1.0000
v 0.809214 -0.929966 2.715909 1.0000 1.0000 1.0000
v 1.076698 0.480354 2.363919 1.0000 1.0000 1.0000
v 1.061291 0.602611 2.447170 1.0000 1.0000 1.0000
v -0.699002 0.984590 2.742425 1.0000 1.0000 1.0000
v 0.529927 -0.390038 -3.456355 1.0000 1.0000 1.0000
v 1.086378 0.584158 2.478762 1.0000 1.0000 1.0000
v -0.752970 0.952103 2.786481 1.0000 1.0000 1.0000
v -0.647333 0.807705 1.203866 1.0000 1.0000 1.0000
v 0.830152 0.425358 1.226669 1.0000 1.0000 1.0000
v 0.750052 -1.004610 2.798580 1.0000 1.0000 1.0000
v 0.818131 0.446351 1.273475 1.0000 1.0000 1.0000
v -0.686754 0.768596 1.112147 1.0000 1.0000 1.0000
v 0.410600 0.746213 -0.329227 1.0000 1.0000 1.0000
v -0.544707 -0.112526 -1.751449 1.0000 1.0000 1.0000
v 0.813101 0.919838 2.715623 1.0000 1.0000 1.0000
v 0.680157 -0.664087 1.398412 1.0000 1.0000 1.0000
v 0.623060 -0.700922 1.269700 1.0000 1.0000 1.0000
v 0.529927 -0.112526 -1.751449 1.0000 1.0000 1.0000
v 0.743617 0.765784 1.280872 1.0000 1.0000 1.0000
v 0.081131 0.993030 2.738453 1.0000 1.0000 1.0000
v 0.040499 0.953695 2.796856 1.0000 1.0000 1.0000
v -0.544707 -0.023570 -2.845851 1.0000 1.0000 1.0000
v 0.149444 0.831737 1.248918 1.0000 1.0000 1.0000
v 0.529927 -0.023570 -2.845851 1.0000 1.0000 1.0000
v 0.116105 0.790881 1.164981 1.0000 1.0000 1.0000
v 0.410600 0.593005 -0.625614 1.0000 1.0000 1.0000
v 0.699002 0.984590 2.742425 1.0000 1.0000 1.0000
v 0.410600 0.616389 -0.306755 1.0000 1.0000 1.0000
v 0.752970 0.952103 2.786481 1.0000 1.0000 1.0000
v -0.399105 0.593005 -0.625614 1.0000 1.0000 1.0000
v 0.647333 0.807705 1.203866 1.0000 1.0000 1.0000
v -0.399105 0.616389 -0.306755 1.0000 1.0000 1.0000
v 0.686754 0.768596 1.112147 1.0000 1.0000 1.0000
v 0.410600 0.663493 0.335564 1.0000 1.0000 1.0000
v 0.410600 0.683932 0.614260 1.0000 1.0000 1.0000
v -0.399105 0.663493 0.335564 1.0000 1.0000 1.0000
v -0.399105 0.683932 0.614260 1.0000 1.0000 1.0000
v 0.410600 0.650032 0.152004 1.0000 1.0000 1.0000
v 0.410600 0.627035 -0.161589 1.0000 1.0000 1.0000
v -0.399105 0.627035 -0.161589 1.0000 1.0000 1.0000
v -0.399105 0.650032 0.152004 1.0000 1.0000 1.0000
v 0.087979 0.731993 1.900440 1.0000 1.0000 1.0000
v 0.120775 -0.662504 1.900440 1.0000 1.0000 1.0000
v 0.529927 -0.523440 0.977049 1.0000 1.0000 1.0000
v 0.529927 0.669292 0.963439 1.0000 1.0000 1.0000
v 0.171189 -0.574499 1.316083 1.0000 1.0000 1.0000
v 0.166661 -0.593947 1.445215 1.0000 1.0000 1.0000
v 0.244475 -0.523440 0.977049 1.0000 1.0000 1.0000
v 0.240157 -0.525057 0.987784 1.0000 1.0000 1.0000
v 0.479262 0.682909 0.963284 1.0000 1.0000 1.0000
v 0.442966 0.696968 0.963123 1.0000 1.0000 1.0000
v 0.124288 0.704074 1.153292 1.0000 1.0000 1.0000
v 0.119575 0.704867 1.174500 1.0000 1.0000 1.0000
v -0.110533 -0.662504 1.900440 1.0000 1.0000 1.0000
v -0.081306 0.731993 1.900440 1.0000 1.0000 1.0000
v -0.077137 -0.028922 1.900440 1.0000 1.0000 1.0000
v -0.544707 -0.523440 0.977049 1.0000 1.0000 1.0000
v -0.171189 -0.574499 1.316083 1.0000 1.0000 1.0000
v -0.244475 -0.523440 0.977049 1.0000 1.0000 1.0000
v -0.179857 -0.571021 1.292984 1.0000 1.0000 1.0000
v -0.482885 0.682909 0.963284 1.0000 1.0000 1.0000
v -0.438598 0.696968 0.963123 1.0000 1.0000 1.0000
v -0.202199 0.696968 0.963123 1.0000 1.0000 1.0000
v -0.112133 0.707312 1.239952 1.0000 1.0000 1.0000
v -0.119575 0.704867 1.174500 1.0000 1.0000 1.0000
v -0.544707 0.669292 0.963439 1.0000 1.0000 1.0000
v 0.754860 0.475136 1.526834 1.0000 1.0000 1.0000
v 0.797256 -0.620836 2.454306 1.0000 1.0000 1.0000
v 0.809098 0.469490 2.652280 1.0000 1.0000 1.0000
v 0.807095 -0.489840 2.652681 1.0000 1.0000 1.0000
v 0.803065 0.586008 2.522017 1.0000 1.0000 1.0000
v 0.800107 -0.628345 2.513781 1.0000 1.0000 1.0000
v 0.801388 0.604149 2.486432 1.0000 1.0000 1.0000
v 0.802047 0.596851 2.500432 1.0000 1.0000 1.0000
v 0.688366 -0.479132 1.383209 1.0000 1.0000 1.0000
v 0.729457 0.446741 1.307099 1.0000 1.0000 1.0000
v 0.610375 -0.333530 0.993402 1.0000 1.0000 1.0000
v 0.627214 -0.428136 1.209876 1.0000 1.0000 1.0000
v 0.617934 -0.373162 1.089496 1.0000 1.0000 1.0000
v 0.633099 0.312030 0.989905 1.0000 1.0000 1.0000
v 0.653236 0.357777 1.093558 1.0000 1.0000 1.0000
v 0.634220 -0.443452 1.242095 1.0000 1.0000 1.0000
v 0.669998 0.382015 1.153594 1.0000 1.0000 1.0000
v 0.685038 0.395921 1.186612 1.0000 1.0000 1.0000
v 0.708477 0.422196 1.250306 1.0000 1.0000 1.0000
v 0.681025 -0.475641 1.360759 1.0000 1.0000 1.0000
v 0.724532 0.444773 1.292955 1.0000 1.0000 1.0000
v 0.648859 -0.462848 1.281177 1.0000 1.0000 1.0000
v -0.694277 -0.495858 1.538314 1.0000 1.0000 1.0000
v -0.786176 0.599043 2.448846 1.0000 1.0000 1.0000
v -0.688446 -0.477322 1.383060 1.0000 1.0000 1.0000
v -0.729465 0.446909 1.307085 1.0000 1.0000 1.0000
v -0.716537 -0.523830 1.765172 1.0000 1.0000 1.0000
v -0.792075 0.593711 2.508915 1.0000 1.0000 1.0000
v -0.790053 0.604216 2.488144 1.0000 1.0000 1.0000
v -0.803972 -0.489819 2.653152 1.0000 1.0000 1.0000
v -0.805963 0.469511 2.652753 1.0000 1.0000 1.0000
v -0.793491 0.586070 2.523479 1.0000 1.0000 1.0000
v -0.790115 -0.628280 2.515290 1.0000 1.0000 1.0000
v -0.616049 -0.338758 1.003404 1.0000 1.0000 1.0000
v -0.621422 -0.374043 1.076328 1.0000 1.0000 1.0000
v -0.659684 0.344636 1.070514 1.0000 1.0000 1.0000
v -0.634163 -0.444763 1.242236 1.0000 1.0000 1.0000
v -0.669881 0.379305 1.153885 1.0000 1.0000 1.0000
v -0.613456 -0.333550 0.992937 1.0000 1.0000 1.0000
v -0.636824 0.312006 0.989343 1.0000 1.0000 1.0000
v -0.716582 0.436868 1.278367 1.0000 1.0000 1.0000
v -0.643019 -0.458097 1.271549 1.0000 1.0000 1.0000
v -0.706072 0.422133 1.250773 1.0000 1.0000 1.0000
v -0.646877 -0.462768 1.281590 1.0000 1.0000 1.0000
v -0.723442 0.444755 1.293182 1.0000 1.0000 1.0000
v 1.071176 -0.160388 2.362605 1.0000 1.0000 1.0000
v 1.076639 0.107168 2.404346 1.0000 1.0000 1.0000
v 1.076844 -0.127757 2.404188 1.0000 1.0000 1.0000
v 1.075972 -0.136036 2.397481 1.0000 1.0000 1.0000
v 1.060688 -0.212898 2.287509 1.0000 1.0000 1.0000
v 1.071494 0.168429 2.342778 1.0000 1.0000 1.0000
v 1.069341 -0.173585 2.343138 1.0000 1.0000 1.0000
v 1.064583 0.201007 2.295615 1.0000 1.0000 1.0000
v 1.063159 0.212898 2.285677 1.0000 1.0000 1.0000
v 1.040229 -0.187640 2.150934 1.0000 1.0000 1.0000
v 1.042593 0.187866 2.150539 1.0000 1.0000 1.0000
v 0.831707 -0.009353 1.234473 1.0000 1.0000 1.0000
v 0.831640 0.009289 1.234138 1.0000 1.0000 1.0000
v 0.808852 0.000000 1.195228 1.0000 1.0000 1.0000
v 1.070063 -0.170306 2.347778 1.0000 1.0000 1.0000
v 1.074122 0.156039 2.360715 1.0000 1.0000 1.0000
v 1.076829 0.127757 2.404200 1.0000 1.0000 1.0000
v -1.071413 -0.148769 2.364418 1.0000 1.0000 1.0000
v -1.075438 0.048356 2.395171 1.0000 1.0000 1.0000
v -1.074588 -0.133309 2.386879 1.0000 1.0000 1.0000
v -1.075284 -0.127757 2.395290 1.0000 1.0000 1.0000
v -1.059369 -0.212898 2.278779 1.0000 1.0000 1.0000
v -1.060986 -0.200592 2.288957 1.0000 1.0000 1.0000
v -1.071482 0.166655 2.342780 1.0000 1.0000 1.0000
v -1.069408 -0.162942 2.343127 1.0000 1.0000 1.0000
v -1.061840 0.212898 2.276947 1.0000 1.0000 1.0000
v -1.040219 -0.189255 2.150936 1.0000 1.0000 1.0000
v -1.042602 0.189482 2.150537 1.0000 1.0000 1.0000
v -0.831634 0.010900 1.234109 1.0000 1.0000 1.0000
v -0.831712 -0.010975 1.234502 1.0000 1.0000 1.0000
v -0.804895 0.000000 1.188453 1.0000 1.0000 1.0000
v -1.070198 -0.159409 2.348210 1.0000 1.0000 1.0000
v -1.074098 0.154110 2.360638 1.0000 1.0000 1.0000
v -1.076171 0.127757 2.394606 1.0000 1.0000 1.0000
v -1.075739 0.136599 2.387058 1.0000 1.0000 1.0000
v 2.412389 0.127757 1.373785 1.0000 1.0000 1.0000
v 2.499049 0.023589 1.306925 1.0000 1.0000 1.0000
v 2.739533 0.023589 1.121385 1.0000 1.0000 1.0000
v 2.341558 0.212898 1.337766 1.0000 1.0000 1.0000
v 2.833511 0.023589 -0.164310 1.0000 1.0000 1.0000
v 2.499049 0.023589 0.083688 1.0000 1.0000 1.0000
v 2.833511 0.023589 0.972991 1.0000 1.0000 1.0000
v -2.499054 0.023589 1.296818 1.0000 1.0000 1.0000
v -2.726440 0.023589 1.121385 1.0000 1.0000 1.0000
v -2.444438 0.127757 1.338956 1.0000 1.0000 1.0000
v -2.399797 0.212898 1.284873 1.0000 1.0000 1.0000
v -2.499054 0.023589 0.073976 1.0000 1.0000 1.0000
v -2.820418 0.023589 -0.164310 1.0000 1.0000 1.0000
v -2.820418 0.023589 0.972990 1.0000 1.0000 1.0000
v -2.410294 0.192879 1.307254 1.0000 1.0000 1.0000
v -2.407093 0.198984 1.301424 1.0000 1.0000 1.0000
v -2.404132 -0.127757 1.370053 1.0000 1.0000 1.0000
v -2.726440 -0.013657 1.121385 1.0000 1.0000 1.0000
v -2.499054 -0.013657 1.296818 1.0000 1.0000 1.0000
v -2.820418 -0.013657 -0.223976 1.0000 1.0000 1.0000
v -2.820418 -0.013657 0.972991 1.0000 1.0000 1.0000
v -2.334555 -0.212898 1.333250 1.0000 1.0000 1.0000
v -2.352300 -0.190060 1.354510 1.0000 1.0000 1.0000
v -2.337038 -0.208405 1.336318 1.0000 1.0000 1.0000
v -2.335148 -0.210677 1.319467 1.0000 1.0000 1.0000
v -2.499054 -0.013657 0.014310 1.0000 1.0000 1.0000
v 2.739533 -0.013657 1.121385 1.0000 1.0000 1.0000
v 2.445183 -0.127757 1.348483 1.0000 1.0000 1.0000
v 2.505007 -0.013657 1.302328 1.0000 1.0000 1.0000
v 2.833511 -0.013657 -0.223976 1.0000 1.0000 1.0000
v 2.833511 -0.013657 0.972991 1.0000 1.0000 1.0000
v 2.444413 -0.129225 1.347768 1.0000 1.0000 1.0000
v 2.400542 -0.212898 1.294030 1.0000 1.0000 1.0000
v 2.437143 -0.143092 1.331426 1.0000 1.0000 1.0000
v 2.505007 -0.013657 0.019605 1.0000 1.0000 1.0000
vn -0.0000 -0.8931 -0.4499
vn -0.0000 -0.9985 -0.0557
vn -0.0000 -0.0000 1.0000
vn 1.0000 -0.0000 -0.0000
vn -0.0000 -0.9888 -0.1489
vn 0.3606 0.9302 -0.0682
vn -0.0000 0.9973 -0.0731
vn -0.0000 -0.9967 -0.0810
vn -1.0000 -0.0000 -0.0000
vn -0.0006 -0.8578 0.5139
vn -0.0000 0.1706 0.9853
vn -0.0000 0.8883 -0.4592
vn 0.0197 -0.9804 -0.1960
vn -0.0000 0.9014 -0.4329
vn -0.0000 -0.0114 -0.9999
vn -0.9950 0.0057 -0.0994
vn 0.9988 -0.0021 -0.0481
vn -0.0000 -0.9435 -0.3314
vn -0.0000 -0.7071 0.7071
vn -0.7071 -0.0000 0.7071
vn 0.3881 0.9143 -0.1156
vn -0.9747 -0.0630 -0.2143
vn -0.9252 -0.0364 -0.3777
vn 0.0375 0.9926 -0.1154
vn 0.4919 0.0047 0.8706
vn 0.9950 -0.0355 -0.0929
vn 0.1208 0.9065 0.4046
vn 0.6380 -0.7403 -0.2119
vn 0.7621 -0.0015 0.6474
vn 0.9451 -0.0682 -0.3196
vn 0.9195 -0.0811 -0.3847
vn -0.6538 0.7493 -0.1051
vn 0.5782 0.8081 -0.1123
vn 0.0103 0.8108 0.5852
vn 0.0037 0.8986 -0.4388
vn -0.0000 0.4698 0.8828
vn -0.0197 -0.9804 -0.1960
vn 0.0001 0.9014 -0.4329
vn 0.9989 0.0055 -0.0468
vn -0.9952 -0.0021 -0.0979
vn 0.7071 -0.0000 0.7071
vn -0.3881 0.9143 -0.1156
vn 0.9296 -0.0774 -0.3605
vn -0.0375 0.9926 -0.1154
vn -0.4919 0.0047 0.8706
vn -0.9656 -0.0364 -0.2573
vn -0.0797 0.9169 -0.3910
vn -0.6380 -0.7403 -0.2119
vn -0.7621 -0.0015 0.6474
vn -0.9192 -0.0726 -0.3870
vn 0.6538 0.7493 -0.1051
vn -0.5782 0.8081 -0.1123
vn -0.0103 0.8108 0.5852
vn -0.0037 0.8986 -0.4388
vn 0.1493 0.0001 0.9888
vn -0.0923 0.9320 -0.3505
vn -0.0538 -0.9915 -0.1181
vn -0.1493 -0.0001 -0.9888
vn 0.9916 0.0003 -0.1293
vn 0.1011 -0.7070 0.6999
vn -0.0424 0.9915 -0.1232
vn 0.9742 -0.0064 -0.2256
vn 0.9754 -0.0064 -0.2202
vn -0.1207 -0.9065 -0.4046
vn 0.8635 -0.0060 -0.5043
vn 0.9976 -0.0097 -0.0684
vn 0.9888 -0.0064 -0.1493
vn 0.8047 -0.0044 0.5936
vn 0.0063 1.0000 -0.0011
vn 0.6737 -0.0050 -0.7389
vn 0.1100 0.7072 0.6984
vn -0.5936 0.0046 0.8047
vn -0.0063 -1.0000 0.0011
vn 0.0716 0.8926 0.4450
vn 0.7517 0.6152 -0.2376
vn -0.1068 0.8967 -0.4296
vn 0.1055 0.7443 0.6594
vn -0.1493 0.0001 0.9888
vn 0.0963 0.9232 -0.3721
vn 0.0640 -0.9912 -0.1159
vn 0.1493 -0.0001 -0.9888
vn -0.9969 -0.0064 -0.0783
vn -0.1011 -0.7070 0.6999
vn 0.0406 0.9915 -0.1236
vn -0.9888 -0.0064 -0.1493
vn -0.9754 -0.0064 -0.2202
vn 0.0708 -0.8999 -0.4302
vn -0.8635 -0.0060 -0.5043
vn -0.9976 -0.0097 -0.0684
vn -0.8047 -0.0044 0.5936
vn -0.0063 1.0000 -0.0011
vn -0.6737 -0.0050 -0.7389
vn -0.1100 0.7072 0.6984
vn 0.5936 0.0046 0.8047
vn 0.0063 -1.0000 0.0011
vn -0.6737 -0.0050 -0.7390
vn -0.0756 0.8860 0.4575
vn -0.7517 0.6152 -0.2376
vn 0.1045 0.8933 -0.4372
vn -0.1045 0.7436 0.6604
vn 0.6109 -0.0000 0.7917
vn -0.1209 0.9792 -0.1630
vn 0.4587 -0.6378 0.6187
vn 0.3768 0.7870 0.4884
vn 0.8448 -0.0000 0.5350
vn -0.1209 -0.9792 -0.1630
vn -0.6109 -0.0000 0.7917
vn 0.1209 0.9792 -0.1630
vn -0.3632 -0.7906 0.4930
vn -0.9976 -0.0097 -0.0685
vn -0.8448 -0.0000 0.5350
vn 0.1209 -0.9792 -0.1630
vn -0.0000 0.9536 -0.3011
vn -0.0000 -1.0000 -0.0000
vn -0.0000 0.9192 -0.3937
vn -0.7688 -0.6395 -0.0000
vn 0.8764 0.4817 -0.0000
vn -0.8680 -0.4555 0.1977
vn 0.5425 0.8011 -0.2530
vn -0.0001 0.9762 -0.2168
vn 0.5445 0.8039 -0.2391
vn 0.8584 0.4722 -0.2004
vn 0.0001 -0.9762 0.2168
vn 0.5242 0.7713 0.3610
vn -0.7685 -0.4099 0.4913
vn -0.0006 0.8174 0.5761
vn 0.6783 0.3618 0.6395
vn -0.0000 -0.7036 0.7106
vn 0.4360 0.7079 0.5557
vn -0.5111 0.8290 -0.2270
vn -0.5827 -0.1040 0.8060
vn 0.3620 -0.1623 -0.9180
vn -0.1771 0.3378 0.9244
vn 0.7662 0.6187 -0.1736
vn 0.7557 0.0205 0.6546
vn -0.1386 0.9815 0.1320
vn 0.5111 -0.8290 0.2270
vn 0.8856 -0.4644 -0.0000
vn -0.8764 0.4817 -0.0000
vn 0.8680 -0.4555 0.1977
vn -0.5425 0.8011 -0.2530
vn 0.0001 0.9762 -0.2168
vn -0.5445 0.8039 -0.2391
vn -0.8584 0.4722 -0.2004
vn -0.0001 -0.9762 0.2168
vn -0.5242 0.7713 0.3610
vn 0.7685 -0.4099 0.4913
vn 0.0006 0.8174 0.5761
vn -0.6783 0.3618 0.6395
vn -0.4360 0.7079 0.5557
vn 0.5111 0.8290 -0.2271
vn 0.5827 -0.1040 0.8060
vn -0.3620 -0.1623 -0.9180
vn 0.1771 0.3378 0.9244
vn -0.7662 0.6187 -0.1736
vn -0.7557 0.0205 0.6546
vn 0.1386 0.9815 0.1320
vn -0.5111 -0.8290 0.2271
vn -0.0000 -0.9536 -0.3011
vn -0.0000 1.0000 -0.0000
vn -0.0000 -0.9192 -0.3937
vn 0.8321 0.5434 0.1108
vn -0.8764 -0.4817 -0.0000
vn -0.3620 0.1623 -0.9180
vn 0.8680 0.4555 0.1977
vn -0.5425 -0.8011 -0.2530
vn 0.0001 -0.9762 -0.2168
vn -0.5445 -0.8039 -0.2391
vn -0.8584 -0.4722 -0.2004
vn -0.0001 0.9762 0.2168
vn -0.5242 -0.7713 0.3610
vn 0.7685 0.4099 0.4913
vn 0.0006 -0.8174 0.5761
vn -0.6783 -0.3618 0.6395
vn -0.0000 0.7036 0.7106
vn -0.4360 -0.7079 0.5557
vn 0.5111 -0.8290 -0.2270
vn 0.5827 0.1040 0.8060
vn 0.1771 -0.3378 0.9244
vn -0.7662 -0.6187 -0.1736
vn -0.7557 -0.0205 0.6546
vn 0.1386 -0.9815 0.1320
vn -0.5111 0.8290 0.2270
vn -0.8856 0.4644 -0.0000
vn 0.8764 -0.4817 -0.0000
vn -0.8680 0.4555 0.1977
vn 0.5425 -0.8011 -0.2529
vn -0.0001 -0.9762 -0.2168
vn 0.5445 -0.8039 -0.2391
vn 0.8584 -0.4722 -0.2004
vn 0.0001 0.9762 0.2168
vn 0.5242 -0.7713 0.3610
vn -0.7685 0.4099 0.4913
vn -0.0006 -0.8174 0.5761
vn 0.6783 -0.3618 0.6395
vn 0.4360 -0.7079 0.5557
vn -0.5111 -0.8290 -0.2270
vn -0.5827 0.1040 0.8060
vn 0.3620 0.1623 -0.9180
vn -0.1771 -0.3378 0.9244
vn 0.7662 -0.6187 -0.1736
vn 0.7557 -0.0205 0.6546
vn -0.1386 -0.9815 0.1320
vn 0.5111 0.8290 0.2270
vn 0.0001 -0.9985 -0.0555
vn -0.3021 0.9507 -0.0697
vn -0.0000 0.9993 -0.0373
vn -0.0000 0.9993 -0.0375
vn -0.0001 0.9993 -0.0373
vn -0.0001 0.9993 -0.0371
vn 0.0002 0.9993 -0.0374
vn 0.2437 0.9677 -0.0648
vn 0.2592 0.9637 -0.0645
vn 0.3188 0.9453 -0.0693
vn -0.2658 0.9615 -0.0705
vn -0.2148 0.9745 -0.0652
vn -0.2017 0.9773 -0.0654
vn -0.0000 -0.8574 0.5147
vn 0.0208 -0.9803 -0.1965
vn -0.0038 0.9062 -0.4229
vn -0.0000 -0.0125 -0.9999
vn -0.9981 -0.0449 -0.0418
vn -0.9986 -0.0235 -0.0471
vn 0.9988 -0.0021 -0.0482
vn 0.9927 -0.0529 -0.1079
vn 0.3592 0.9259 -0.1168
vn 0.0143 0.9942 -0.1070
vn 0.4706 -0.0000 0.8823
vn 0.9677 -0.0680 -0.2427
vn 0.9936 -0.0537 -0.0992
vn 0.9929 -0.0235 -0.1168
vn 0.9840 -0.0408 -0.1732
vn 0.7890 -0.5868 -0.1821
vn 0.8122 0.0024 0.5834
vn -0.7649 0.6358 -0.1039
vn 0.5559 0.8236 -0.1123
vn 0.0077 0.8269 0.5623
vn -0.0004 0.9198 -0.3924
vn 0.0138 0.4857 0.8740
vn -0.0208 -0.9803 -0.1965
vn 0.0038 0.9061 -0.4232
vn 0.9925 -0.0523 -0.1109
vn -0.9979 -0.0478 -0.0432
vn -0.3592 0.9259 -0.1168
vn 0.9780 -0.0362 -0.2055
vn -0.0143 0.9942 -0.1070
vn -0.4706 -0.0000 0.8823
vn -0.9936 -0.0537 -0.0992
vn -0.9677 -0.0680 -0.2427
vn -0.9823 -0.0317 -0.1844
vn -0.7890 -0.5868 -0.1821
vn -0.8122 0.0024 0.5834
vn -0.9446 -0.0752 -0.3196
vn 0.7649 0.6358 -0.1039
vn -0.5559 0.8236 -0.1123
vn -0.0077 0.8269 0.5623
vn 0.0004 0.9198 -0.3924
vn -0.0138 0.4857 0.8740
vn -0.0536 0.9174 -0.3945
vn -0.0251 -0.9920 -0.1240
vn -0.0672 -0.9890 -0.1318
vn -0.0248 -0.9914 -0.1286
vn 0.9905 0.0019 -0.1375
vn 0.9900 0.0018 -0.1412
vn 0.9907 0.0010 -0.1358
vn -0.0142 0.9911 -0.1326
vn 0.9932 0.0312 -0.1119
vn 0.9745 -0.0005 -0.2244
vn 0.9748 -0.0064 -0.2231
vn 0.9845 0.0936 -0.1487
vn 0.8231 0.5175 -0.2341
vn 0.9751 -0.0005 -0.2220
vn 0.7750 -0.5864 -0.2356
vn -0.0628 -0.9244 -0.3763
vn 0.9932 0.0312 -0.1120
vn 0.9969 -0.0064 -0.0783
vn 0.9976 -0.0097 -0.0683
vn 0.0063 1.0000 -0.0010
vn -0.5936 0.0046 0.8048
vn -0.0063 -1.0000 0.0010
vn 0.6737 -0.0050 -0.7390
vn 0.0745 0.8857 0.4582
vn 0.0756 0.8860 0.4575
vn 0.5584 0.8010 -0.2159
vn -0.1054 0.8947 -0.4340
vn 0.1045 0.7437 0.6603
vn 0.0485 0.9314 -0.3608
vn 0.0268 -0.9904 -0.1353
vn -0.9898 -0.0010 -0.1425
vn -0.9913 0.0003 -0.1316
vn -0.9922 0.0017 -0.1249
vn -0.9900 0.0018 -0.1412
vn 0.0136 0.9915 -0.1292
vn 0.0446 0.9900 -0.1341
vn 0.0137 0.9912 -0.1314
vn -0.9932 0.0312 -0.1119
vn -0.9845 0.0936 -0.1487
vn -0.9748 -0.0064 -0.2232
vn -0.9745 -0.0005 -0.2244
vn -0.8231 0.5175 -0.2341
vn -0.9742 -0.0064 -0.2256
vn -0.9751 -0.0005 -0.2219
vn -0.7750 -0.5864 -0.2356
vn 0.1164 -0.9169 -0.3819
vn -0.0063 1.0000 -0.0010
vn 0.0063 -1.0000 0.0010
vn -0.0724 0.8928 0.4445
vn -0.5584 0.8010 -0.2159
vn 0.1044 0.8971 -0.4292
vn 0.1068 0.8967 -0.4296
vn -0.1055 0.7443 0.6594
vn 0.6108 -0.0000 0.7917
vn 0.8584 -0.4539 0.2391
vn 0.9893 0.0137 -0.1456
vn 0.4014 -0.7538 0.5203
vn 0.4922 -0.5759 0.6528
vn 0.3821 -0.7817 0.4930
vn 0.4782 0.5962 0.6449
vn 0.4568 0.6410 0.6169
vn -0.6108 -0.0000 0.7917
vn -0.4932 -0.5735 0.6541
vn -0.3768 -0.7870 0.4884
vn -0.3768 -0.7871 0.4884
vn -0.4477 -0.6596 0.6037
vn -0.3651 -0.7908 0.4912
vn -0.4733 -0.5975 0.6473
vn -0.3689 0.7851 0.4975
vn -0.4039 0.7337 0.5465
vn -0.3825 0.7815 0.4929
vn -0.4833 0.5748 0.6603
vn -0.4174 0.7301 0.5410
vn 0.1461 0.8732 -0.4650
vn -0.0000 0.8542 -0.5200
vn -0.8840 -0.4660 0.0374
vn -0.8851 -0.4641 0.0357
vn 0.8445 0.5248 -0.1068
vn 0.3724 0.9281 -0.0000
vn 0.1447 0.9560 -0.2550
vn 0.8799 0.4655 -0.0951
vn 0.5042 0.8384 -0.2073
vn 0.2673 0.9324 -0.2432
vn -0.7791 -0.4095 0.4747
vn -0.0000 0.8173 0.5762
vn 0.6651 0.3642 0.6519
vn 0.0003 -0.7037 0.7105
vn 0.7557 0.0205 0.6545
vn 0.5111 -0.8290 0.2271
vn -0.1461 0.8732 -0.4650
vn 0.8430 -0.5340 0.0640
vn 0.7688 -0.6395 -0.0000
vn 0.7694 -0.6377 0.0366
vn 0.8857 -0.4644 -0.0000
vn -0.1447 0.9560 -0.2550
vn -0.3724 0.9281 -0.0000
vn -0.8445 0.5248 -0.1068
vn -0.8799 0.4655 -0.0951
vn -0.2673 0.9324 -0.2432
vn -0.5425 0.8011 -0.2529
vn -0.5042 0.8384 -0.2073
vn 0.7791 -0.4095 0.4747
vn -0.6651 0.3642 0.6519
vn -0.0003 -0.7037 0.7105
vn 0.5111 0.8290 -0.2270
vn -0.5111 -0.8290 0.2270
vn -0.1461 -0.8732 -0.4650
vn -0.0000 -0.8542 -0.5200
vn 0.7410 -0.0476 0.6698
vn 0.7688 0.6395 -0.0000
vn 0.8850 0.4641 0.0367
vn 0.8851 0.4641 0.0337
vn -0.8445 -0.5248 -0.1068
vn -0.3724 -0.9281 -0.0000
vn -0.1447 -0.9560 -0.2550
vn -0.8799 -0.4655 -0.0951
vn -0.2673 -0.9324 -0.2432
vn 0.7791 0.4095 0.4747
vn -0.0000 -0.8173 0.5762
vn -0.6651 -0.3642 0.6519
vn -0.0003 0.7037 0.7105
vn -0.7557 -0.0205 0.6545
vn 0.1461 -0.8732 -0.4650
vn -0.8857 0.4644 -0.0000
vn -0.8428 0.5344 0.0642
vn -0.7688 0.6395 -0.0000
vn -0.7667 0.6409 0.0374
vn -0.8856 0.4645 -0.0000
vn 0.1447 -0.9561 -0.2550
vn 0.3724 -0.9281 -0.0000
vn 0.8445 -0.5248 -0.1068
vn 0.8799 -0.4655 -0.0951
vn 0.2673 -0.9324 -0.2432
vn 0.5425 -0.8011 -0.2530
vn -0.7791 0.4095 0.4747
vn 0.6651 -0.3642 0.6519
vn 0.0003 0.7037 0.7105
vt 0.268004 0.468750
vt 0.181794 0.553923
vt 0.181781 0.468741
vt 0.181781 0.417953
vt 0.847569 0.964007
vt 0.829010 0.964007
vt 0.831690 0.913275
vt 0.303064 0.193280
vt 0.316042 0.279383
vt 0.268018 0.497911
vt 0.244764 0.069810
vt 0.245110 0.070631
vt 0.205879 0.070628
vt 0.009578 0.139515
vt 0.009578 0.164646
vt 0.004067 0.074844
vt 0.074545 0.176287
vt 0.074545 0.164654
vt 0.009578 0.124805
vt 0.074545 0.139523
vt 0.074544 0.201839
vt 0.086224 0.577000
vt 0.000000 0.576989
vt 0.268018 0.279332
vt 0.181793 0.364187
vt 0.181794 0.279324
vt 0.121284 0.307083
vt 0.086224 0.501687
vt 0.086224 -0.000000
vt 0.268005 0.417867
vt 0.719265 0.287592
vt 0.716760 0.312991
vt 0.708693 0.287592
vt 0.125849 0.501687
vt 0.136359 0.566655
vt 0.125849 0.566655
vt 0.719595 0.296386
vt 0.730165 0.296386
vt 0.722160 0.321586
vt 0.009591 0.176383
vt 0.009577 0.201831
vt 0.362873 0.609623
vt 0.360683 0.631823
vt 0.353633 0.609623
vt 0.767131 0.766195
vt 0.776317 0.831162
vt 0.767131 0.831162
vt 0.818659 0.583842
vt 0.827464 0.581045
vt 0.827464 0.604155
vt 0.009590 0.102562
vt 0.074545 0.124813
vt 0.740074 0.298523
vt 0.730165 0.321586
vt 0.730165 0.295376
vt 0.136359 0.566655
vt 0.146696 0.501687
vt 0.146696 0.566655
vt 0.740074 0.295376
vt 0.750470 0.295376
vt 0.742598 0.320160
vt 0.009592 0.139618
vt 0.939514 0.023725
vt 0.961708 0.145473
vt 0.939695 0.145506
vt 0.984409 0.171900
vt 0.938458 0.283111
vt 0.926650 0.173031
vt 0.107504 0.870734
vt 0.146378 0.883459
vt 0.110902 0.883459
vt 0.742675 0.864090
vt 0.737371 0.870104
vt 0.733117 0.766195
vt 0.329373 0.557027
vt 0.329373 0.715094
vt 0.257773 0.687018
vt 0.413504 0.673253
vt 0.409120 0.785510
vt 0.408222 0.637197
vt 0.974235 0.287724
vt 0.944071 0.309152
vt 0.961730 0.157727
vt 0.926649 0.157727
vt 0.927241 0.000011
vt 0.102939 0.857409
vt 0.102182 0.735774
vt 0.197584 0.577585
vt 0.198550 0.570608
vt 0.199314 0.577510
vt 0.183088 0.682263
vt 0.183013 0.676245
vt 0.183905 0.676367
vt 0.106517 0.738843
vt 0.150620 0.859088
vt 0.110670 0.862966
vt 0.984407 0.156739
vt 0.961526 0.023692
vt 0.984407 -0.000000
vt 0.549328 0.653893
vt 0.549328 0.757902
vt 0.547527 0.684819
vt 0.456725 0.316843
vt 0.457010 0.319247
vt 0.456725 0.328098
vt 0.515023 0.763323
vt 0.403344 0.791755
vt 0.403344 0.634862
vt 0.525895 0.676006
vt 0.522303 0.674187
vt 0.536952 0.648168
vt 0.517908 0.748177
vt 0.524611 0.747173
vt 0.204969 0.567345
vt 0.159348 0.734932
vt 0.153292 0.866262
vt 0.488212 0.815447
vt 0.510043 0.937261
vt 0.488030 0.937228
vt 0.988221 0.446970
vt 0.942241 0.335759
vt 1.000000 0.336890
vt 0.416322 0.940282
vt 0.455205 0.927557
vt 0.451798 0.940282
vt 0.174871 0.711295
vt 0.174133 0.615624
vt 0.181781 0.613400
vt 0.071162 0.655761
vt 0.000000 0.734932
vt 0.000000 0.577000
vt 0.771766 0.647788
vt 0.761402 0.638374
vt 0.777059 0.611690
vt 0.982618 0.473011
vt 0.952446 0.451583
vt 0.964926 0.321586
vt 0.523089 0.949482
vt 0.510225 0.815480
vt 0.522497 0.791766
vt 0.460509 0.792597
vt 0.459765 0.914232
vt 0.147265 0.597824
vt 0.129484 0.596959
vt 0.130225 0.590050
vt 0.117180 0.711640
vt 0.118460 0.699714
vt 0.120400 0.699459
vt 0.412098 0.915912
vt 0.456183 0.795667
vt 0.452045 0.919789
vt 0.465331 0.948494
vt 0.465331 0.791755
vt 0.637540 0.659621
vt 0.637329 0.711438
vt 0.635889 0.732694
vt 0.789117 0.963706
vt 0.789363 0.970799
vt 0.788575 0.977846
vt 0.782249 0.766195
vt 0.670074 0.738126
vt 0.776160 0.760098
vt 0.782249 0.609204
vt 0.661888 0.623278
vt 0.663714 0.648890
vt 0.662555 0.649061
vt 0.659748 0.721564
vt 0.660578 0.721940
vt 0.659323 0.741064
vt 0.403344 0.791755
vt 0.409420 0.923086
vt 0.861443 0.862348
vt 0.847611 0.939164
vt 0.848021 0.862348
vt 0.811166 0.955491
vt 0.821092 0.955146
vt 0.822142 0.960750
vt 0.966499 0.486516
vt 0.958399 0.582623
vt 0.945471 0.573258
vt 0.323485 0.549713
vt 0.327769 0.497919
vt 0.329269 0.549724
vt 0.071366 0.849348
vt 0.097355 0.857915
vt 0.057069 0.852538
vt 0.955482 0.473291
vt 0.943339 0.486027
vt 0.942241 0.473011
vt 0.820801 0.932261
vt 0.820152 0.950134
vt 0.812718 0.951704
vt 0.029053 0.832008
vt 0.006550 0.832008
vt 0.012910 0.756132
vt 0.084712 0.757442
vt 0.092124 0.832008
vt 0.069621 0.832008
vt 0.942602 0.595327
vt 0.942241 0.586655
vt 0.047063 0.753372
vt 0.074131 0.734932
vt 0.047761 0.756768
vt -0.000000 0.858571
vt 0.027316 0.849348
vt 0.036584 0.852540
vt 0.069624 0.847606
vt 0.060473 0.847982
vt 0.060736 0.847606
vt 0.086628 0.868946
vt 0.009699 0.868946
vt 0.752774 0.299164
vt 0.759059 0.314512
vt 0.752628 0.314512
vt 0.343998 0.697361
vt 0.355893 0.696475
vt 0.355893 0.711875
vt 0.091731 0.846750
vt 0.069229 0.847684
vt 0.091732 0.847684
vt 0.088285 0.851228
vt 0.072914 0.851228
vt 0.802548 0.295376
vt 0.798853 0.303867
vt 0.797544 0.299529
vt 0.759205 0.299164
vt 0.750533 0.316219
vt 0.808589 0.296979
vt 0.808589 0.315697
vt 0.776291 0.299171
vt 0.782530 0.314538
vt 0.776099 0.314519
vt 0.147767 0.718231
vt 0.159663 0.717345
vt 0.159663 0.732745
vt 0.028661 0.846750
vt 0.006158 0.847684
vt 0.028661 0.847684
vt 0.009844 0.851228
vt 0.812617 0.563514
vt 0.808922 0.572005
vt 0.807614 0.567666
vt 0.774237 0.297227
vt 0.774066 0.295900
vt 0.773999 0.316219
vt 0.818659 0.565116
vt 0.818659 0.583834
vt 0.828857 0.853912
vt 0.807672 0.854888
vt 0.829010 0.852348
vt 0.806019 0.852348
vt 0.847569 0.852348
vt 0.870301 0.852348
vt 0.353074 0.696439
vt 0.338991 0.619623
vt 0.352665 0.619623
vt 0.800880 0.955490
vt 0.545516 0.880090
vt 0.544518 0.892007
vt 0.531639 0.901447
vt 0.629894 0.643144
vt 0.633970 0.694941
vt 0.628909 0.694941
vt 0.675556 0.881460
vt 0.676001 0.882137
vt 0.661691 0.879665
vt 0.534052 0.792100
vt 0.547057 0.804761
vt 0.523089 0.805374
vt 0.804371 0.854888
vt 0.799331 0.951702
vt 0.791897 0.950131
vt 0.704016 0.862346
vt 0.703334 0.872593
vt 0.701453 0.862346
vt 0.663427 0.862346
vt 0.640912 0.862346
vt 0.648427 0.788175
vt 0.547093 0.915089
vt 0.546884 0.920310
vt 0.541413 0.921219
vt 0.720280 0.786895
vt 0.687029 0.787487
vt 0.686133 0.783628
vt 0.705764 0.879665
vt 0.733117 0.888914
vt 0.696502 0.882098
vt 0.673463 0.878337
vt 0.663433 0.877925
vt 0.673180 0.877925
vt 0.646723 0.899865
vt 0.723693 0.899865
vt 0.788940 0.314512
vt 0.795224 0.299164
vt 0.795370 0.314512
vt 0.818659 0.563545
vt 0.830555 0.564436
vt 0.818659 0.578944
vt 0.708693 0.287592
vt 0.691700 0.310251
vt 0.691700 0.287739
vt 0.628909 0.774585
vt 0.629842 0.752069
vt 0.629842 0.774584
vt 0.633583 0.771040
vt 0.633583 0.755661
vt 0.813640 0.583834
vt 0.818643 0.587987
vt 0.817333 0.592324
vt 0.788793 0.299164
vt 0.785763 0.295376
vt 0.797528 0.295376
vt 0.797285 0.297226
vt 0.797466 0.316218
vt 0.807598 0.585435
vt 0.807598 0.604155
vt 0.765265 0.299164
vt 0.771842 0.314512
vt 0.765411 0.314512
vt 0.819649 0.295408
vt 0.831546 0.296299
vt 0.819649 0.310807
vt 0.691700 0.287592
vt 0.674707 0.310251
vt 0.674707 0.287739
vt 0.776317 0.766195
vt 0.777250 0.788710
vt 0.776317 0.788710
vt 0.780992 0.785166
vt 0.777250 0.766195
vt 0.780992 0.769787
vt 0.818324 0.303866
vt 0.814631 0.295376
vt 0.819634 0.299529
vt 0.773930 0.295899
vt 0.773999 0.295376
vt 0.771696 0.299164
vt 0.773937 0.316219
vt 0.808589 0.296977
vt 0.808589 0.315697
vt 0.782250 0.852348
vt 0.806019 0.852348
vt 0.790756 0.955137
vt 0.791235 0.952662
vt 0.353633 0.609623
vt 0.172656 0.736296
vt 0.181781 0.741552
vt 0.169677 0.736628
vt 0.872758 0.651100
vt 0.868926 0.852348
vt 0.860389 0.812119
vt 0.549587 0.328813
vt 0.551510 0.317599
vt 0.552586 0.324111
vt 0.269028 0.852830
vt 0.262512 0.853348
vt 0.259985 0.720392
vt 0.782249 0.743881
vt 0.785964 0.611488
vt 0.788939 0.613052
vt 0.552586 0.429569
vt 0.549328 0.418952
vt 0.552314 0.418979
vt 0.250724 0.725349
vt 0.185239 0.753976
vt 0.181781 0.983636
vt 0.175431 0.984008
vt 0.161346 0.877965
vt 0.872745 0.330677
vt 0.884418 0.458676
vt 0.802914 0.362565
vt 0.552321 0.440878
vt 0.552407 0.531674
vt 0.549419 0.531681
vt 0.273370 0.846847
vt 0.273115 0.717523
vt 0.277381 0.719908
vt 0.887146 0.322879
vt 0.888710 0.321852
vt 0.889115 0.321586
vt 0.549328 0.542775
vt 0.356469 0.754030
vt 0.352667 0.954022
vt 0.348286 0.918358
vt 0.606242 0.034553
vt 0.635747 0.260247
vt 0.633270 0.260543
vt 0.924305 0.649693
vt 0.925875 0.912435
vt 0.900445 0.792206
vt 0.617577 0.315455
vt 0.566396 0.321586
vt 0.594886 0.285749
vt 0.551842 0.063630
vt 0.510227 0.167543
vt 0.502943 0.167677
vt 0.553116 0.668436
vt 0.611857 0.661805
vt 0.612042 0.671838
vt 0.458541 0.028721
vt 0.553116 0.048634
vt 0.591422 0.054238
vt 0.592919 0.064118
vt 0.632284 0.016079
vt 0.635747 0.031042
vt 0.572565 0.026686
vt 0.576029 0.041649
vt 0.553116 0.653074
vt 0.628909 0.658506
vt 0.874329 0.634678
vt 0.872758 0.649975
vt 0.593125 0.001928
vt 0.602778 0.019590
vt 0.480240 0.000000
vt 0.538714 0.021800
vt 0.609216 0.000000
vt 0.363535 0.520881
vt 0.344328 0.575748
vt 0.345216 0.505730
vt 0.892564 0.609204
vt 0.876358 0.609300
vt 0.330133 0.567929
vt 0.553116 0.048033
vt 0.574483 0.046691
vt 0.570239 0.052663
vt 0.573154 0.059198
vt 0.095219 0.535834
vt 0.086224 0.534697
vt 0.091704 0.516841
vt 0.636599 0.316688
vt 0.635747 0.287592
vt 0.650305 0.301303
vt 0.102859 0.507673
vt 0.101372 0.532165
vt 0.634501 0.724150
vt 0.628909 0.749716
vt 0.628909 0.728841
vt 0.104930 0.540385
vt 0.581813 0.047015
vt 0.306034 0.537252
vt 0.291483 0.547198
vt 0.291190 0.537252
vt 0.553116 0.581837
vt 0.582622 0.356143
vt 0.555593 0.582133
vt 0.873535 0.303227
vt 0.900015 0.183007
vt 0.899481 0.272602
vt 0.593952 0.607321
vt 0.622435 0.643144
vt 0.571251 0.637032
vt 0.458541 0.027074
vt 0.415263 0.172111
vt 0.413805 0.171287
vt 0.873535 0.028039
vt 0.814179 0.029496
vt 0.814333 0.019312
vt 0.363535 0.050203
vt 0.364837 0.064975
vt 0.597415 0.375818
vt 0.595918 0.385698
vt 0.556576 0.337679
vt 0.553116 0.352643
vt 0.616245 0.348257
vt 0.612785 0.363221
vt 0.797143 0.015383
vt 0.873535 0.012656
vt 0.875103 0.040485
vt 0.925081 0.025476
vt 0.926649 0.040774
vt 0.586083 0.341178
vt 0.595682 0.323507
vt 0.436626 0.000000
vt 0.377894 0.023710
vt 0.579590 0.321586
vt 0.167585 0.579525
vt 0.148378 0.524657
vt 0.166697 0.509507
vt 0.906860 -0.000000
vt 0.923066 0.000098
vt 0.181781 0.571705
vt 0.614367 0.368267
vt 0.635693 0.369596
vt 0.618621 0.374239
vt 0.615713 0.380775
vt 0.097379 0.555539
vt 0.091875 0.541774
vt 0.097809 0.555098
vt 0.299051 0.515761
vt 0.297662 0.514180
vt 0.314333 0.503142
vt 0.087710 0.570863
vt 0.086224 0.546371
vt 0.804659 0.589216
vt 0.802556 0.563514
vt 0.807598 0.568701
vt 0.798626 0.590951
vt 0.807598 0.593791
vt 0.804620 0.600284
vt 0.607037 0.368593
vt 0.340172 0.710918
vt 0.330133 0.696439
vt 0.343997 0.701735
vt 0.690011 0.038328
vt 0.708341 0.239718
vt 0.705854 0.239913
vt 0.978993 0.887530
vt 0.953075 0.861461
vt 0.952511 0.766673
vt 0.687137 0.283562
vt 0.635747 0.287592
vt 0.666035 0.257672
vt 0.505321 0.468105
vt 0.507443 0.467239
vt 0.549328 0.607175
vt 0.797143 0.260090
vt 0.737083 0.268990
vt 0.736987 0.258793
vt 0.271697 0.502228
vt 0.275889 0.519404
vt 0.274498 0.520984
vt 0.458541 0.585129
vt 0.459579 0.570267
vt 0.673966 0.051585
vt 0.674978 0.060477
vt 0.716881 0.022169
vt 0.719635 0.036026
vt 0.656239 0.023019
vt 0.658993 0.036877
vt 0.797143 0.275472
vt 0.719635 0.272971
vt 0.927447 0.609477
vt 0.977422 0.623416
vt 0.925875 0.623689
vt 0.677957 0.001267
vt 0.687257 0.024471
vt 0.529466 0.634862
vt 0.473255 0.611788
vt 0.694114 0.000000
vt 0.358191 0.723623
vt 0.376066 0.671161
vt 0.375185 0.741179
vt 0.403344 0.659729
vt 0.390262 0.678978
vt 0.635747 0.041094
vt 0.657567 0.046264
vt 0.653116 0.052542
vt 0.655774 0.059380
vt 0.667965 0.305544
vt 0.668447 0.305932
vt 0.663048 0.319209
vt 0.291190 0.497911
vt 0.291190 0.532147
vt 0.657185 0.291219
vt 0.657185 0.314859
vt 0.318433 0.534858
vt 0.320420 0.508829
vt 0.323485 0.529677
vt 0.320585 0.497911
vt 0.314333 0.506975
vt 0.664854 0.046575
vt 0.281465 0.537280
vt 0.271728 0.553116
vt 0.268018 0.545335
vt 0.646991 0.561305
vt 0.665316 0.359915
vt 0.649479 0.561501
vt 0.889115 0.599912
vt 0.915028 0.479064
vt 0.914461 0.573851
vt 0.689305 0.579273
vt 0.719595 0.609204
vt 0.668206 0.605158
vt 0.412869 0.465088
vt 0.455540 0.571071
vt 0.405336 0.463319
vt 0.719595 0.579963
vt 0.780836 0.577277
vt 0.780826 0.587357
vt 0.456725 0.586093
vt 0.363535 0.605515
vt 0.681369 0.373178
vt 0.680357 0.382070
vt 0.638447 0.343747
vt 0.635693 0.357603
vt 0.699102 0.344618
vt 0.696347 0.358475
vt 0.798626 0.590883
vt 0.719595 0.595337
vt 0.890695 0.335798
vt 0.940661 0.321882
vt 0.942241 0.336095
vt 0.668071 0.346058
vt 0.677385 0.322858
vt 0.384550 0.634458
vt 0.442198 0.612953
vt 0.661228 0.321586
vt 0.385469 0.785295
vt 0.403344 0.837757
vt 0.386349 0.855313
vt 0.358191 0.773863
vt 0.371272 0.793112
vt 0.697763 0.367862
vt 0.719595 0.362699
vt 0.702212 0.374141
vt 0.699552 0.380978
vt 0.111922 0.525873
vt 0.115636 0.507634
vt 0.117736 0.539182
vt 0.119037 0.556019
vt 0.120280 0.557116
vt 0.104604 0.569942
vt 0.121727 0.510864
vt 0.123297 0.534451
vt 0.628909 0.697729
vt 0.634599 0.724150
vt 0.628909 0.719568
vt 0.124044 0.501687
vt 0.690477 0.368171
vt 0.315770 0.553112
vt 0.306034 0.537252
vt 0.319480 0.545315
vt 0.268018 0.553932
vt 0.831355 0.852348
vt 0.844938 0.852348
vt 0.268018 -0.000000
vt 0.322717 0.091751
vt 0.329120 0.143201
vt 0.363535 0.493122
vt 0.211759 0.044696
vt 0.216625 -0.000000
vt 0.238866 0.034822
vt 0.235184 0.000002
vt 0.239230 0.044699
vt 0.211064 0.046463
vt 0.181790 0.070625
vt 0.268014 0.070634
vt 0.081265 0.074854
vt 0.058745 0.074682
vt 0.077713 0.074684
vt 0.074545 0.102479
vt 0.009578 0.102471
vt 0.026298 0.074678
vt 0.052115 0.057840
vt 0.032549 0.059527
vt 0.035460 0.000000
vt 0.049043 0.000002
vt 0.051518 0.052625
vt 0.032927 0.057838
vt 0.006980 0.074676
vt 0.009578 0.176279
vt 0.000000 0.075007
vt 0.086224 0.075018
vt 0.268017 0.364196
vt 0.147345 0.357741
vt 0.140946 0.409461
vt 0.181781 0.005209
vt 0.134268 0.220378
vt 0.136359 0.501687
vt 0.074558 0.176391
vt 0.776317 0.766195
vt 0.074557 0.102570
vt 0.074559 0.139626
vt 0.748609 0.766200
vt 0.745825 0.767327
vt 0.741936 0.768420
vt 0.764634 0.864090
vt 0.764480 0.870104
vt 0.767130 0.766200
vt 0.257512 0.575105
vt 0.212005 0.692085
vt 0.210685 0.680170
vt 0.221038 0.681690
vt 0.426681 0.662322
vt 0.425566 0.662918
vt 0.423848 0.663805
vt 0.521119 0.674028
vt 0.503374 0.671885
vt 0.522870 0.648381
vt 0.516038 0.748456
vt 0.429856 0.760512
vt 0.425110 0.761162
vt 0.413950 0.750170
vt 0.972346 0.309152
vt 0.939717 0.157727
vt 0.097355 0.741801
vt 0.181781 0.578287
vt 0.156093 0.739049
vt 0.539039 0.681189
vt 0.534060 0.679252
vt 0.525956 0.766328
vt 0.527883 0.745625
vt 0.540147 0.739894
vt 0.547839 0.736647
vt 0.531248 0.678123
vt 0.324371 0.553932
vt 0.169369 0.614532
vt 0.165953 0.613404
vt 0.147767 0.613400
vt 0.179130 0.717309
vt 0.152021 0.717309
vt 0.151775 0.711295
vt 0.071357 0.706663
vt 0.071479 0.594771
vt 0.124204 0.596749
vt 0.755391 0.637297
vt 0.699713 0.727052
vt 0.669005 0.723125
vt 0.681437 0.724697
vt 0.760136 0.735796
vt 0.758562 0.636901
vt 0.771320 0.724755
vt 0.760232 0.637754
vt 0.954343 0.473011
vt 0.986939 0.321586
vt 0.465332 0.798625
vt 0.146264 0.695804
vt 0.146202 0.701824
vt 0.406609 0.795872
vt 0.638182 0.711860
vt 0.644030 0.714728
vt 0.657343 0.720486
vt 0.635693 0.628710
vt 0.647964 0.623012
vt 0.650973 0.654285
vt 0.661313 0.649692
vt 0.659019 0.650869
vt 0.860709 0.939164
vt 0.822915 0.963693
vt 0.823483 0.968904
vt 0.823758 0.977845
vt 0.819434 0.977838
vt 0.943693 0.490590
vt 0.943317 0.581387
vt 0.945105 0.575034
vt 0.323485 0.497911
vt 0.057732 0.851996
vt 0.059682 0.849171
vt 0.090386 0.849348
vt 0.038235 0.852549
vt 0.820371 0.951325
vt 0.828758 0.854923
vt 0.029741 0.842976
vt 0.030695 0.843781
vt 0.029057 0.847606
vt 0.033309 0.847606
vt 0.006554 0.847606
vt 0.007046 0.848098
vt 0.046266 0.756740
vt 0.031745 0.832008
vt 0.061858 0.832008
vt 0.092127 0.847606
vt 0.063887 0.843088
vt 0.942506 0.584297
vt 0.948723 0.602438
vt 0.942887 0.602314
vt 0.022352 0.734932
vt 0.008295 0.849348
vt 0.034303 0.849060
vt 0.343998 0.696439
vt 0.069228 0.846750
vt 0.808006 0.296270
vt 0.797528 0.302319
vt 0.750714 0.297226
vt 0.762235 0.295376
vt 0.782722 0.299190
vt 0.147767 0.717309
vt 0.006158 0.846750
vt 0.025215 0.851228
vt 0.818075 0.564408
vt 0.807598 0.570456
vt 0.785763 0.295412
vt 0.339725 0.696439
vt 0.792597 0.977839
vt 0.546878 0.900129
vt 0.545879 0.862556
vt 0.633537 0.643144
vt 0.690131 0.882135
vt 0.635693 0.888221
vt 0.642661 0.879665
vt 0.674316 0.879641
vt 0.547544 0.791755
vt 0.782533 0.858114
vt 0.782364 0.854924
vt 0.791588 0.951319
vt 0.726044 0.878417
vt 0.726537 0.877925
vt 0.726531 0.862346
vt 0.704022 0.877925
vt 0.699625 0.877925
vt 0.669170 0.872705
vt 0.670158 0.873531
vt 0.640918 0.877925
vt 0.685275 0.787519
vt 0.671064 0.862346
vt 0.546999 0.921076
vt 0.547097 0.900881
vt 0.547544 0.903059
vt 0.659236 0.766195
vt 0.711042 0.766195
vt 0.697212 0.881493
vt 0.698619 0.879371
vt 0.724795 0.879665
vt 0.830555 0.563513
vt 0.708693 0.310104
vt 0.628909 0.752070
vt 0.818659 0.590776
vt 0.808181 0.584727
vt 0.831546 0.295376
vt 0.691700 0.310104
vt 0.819650 0.302318
vt 0.809172 0.296269
vt 0.773756 0.297226
vt 0.782296 0.853408
vt 0.330133 0.609623
vt 0.181781 0.851476
vt 0.162993 0.850565
vt 0.161346 0.743178
vt 0.161346 0.850468
vt 0.169677 0.717309
vt 0.172656 0.717456
vt 0.787094 0.740415
vt 0.789513 0.613344
vt 0.799284 0.618711
vt 0.869104 0.650615
vt 0.859756 0.845364
vt 0.264741 0.717734
vt 0.265846 0.717009
vt 0.269128 0.715094
vt 0.268565 0.715433
vt 0.269129 0.852832
vt 0.267482 0.853270
vt 0.264375 0.717938
vt 0.782249 0.609204
vt 0.784832 0.610894
vt 0.549600 0.429542
vt 0.190586 0.951428
vt 0.185600 0.955206
vt 0.189966 0.918830
vt 0.181781 0.754295
vt 0.170471 0.869889
vt 0.170471 0.851623
vt 0.173450 0.851476
vt 0.173450 0.869742
vt 0.181781 0.873719
vt 0.161346 0.984716
vt 0.811003 0.524581
vt 0.811611 0.556531
vt 0.802440 0.563514
vt 0.798625 0.363133
vt 0.881886 0.325658
vt 0.549328 0.436121
vt 0.550418 0.429569
vt 0.269129 0.848849
vt 0.272715 0.717299
vt 0.269129 0.715094
vt 0.269758 0.715500
vt 0.271509 0.716508
vt 0.278248 0.720402
vt 0.275842 0.846933
vt 0.275475 0.846905
vt 0.885671 0.458455
vt 0.886131 0.458427
vt 0.886024 0.323472
vt 0.889115 0.459589
vt 0.552317 0.542768
vt 0.276652 0.847607
vt 0.352411 0.753656
vt 0.286917 0.725041
vt 0.347680 0.950245
vt 0.873452 0.766057
vt 0.874329 0.912740
vt 0.900980 0.881800
vt 0.874028 0.862422
vt 0.892835 0.780560
vt 0.487118 0.268965
vt 0.471788 0.317599
vt 0.458541 0.260256
vt 0.516476 0.175826
vt 0.627783 0.675610
vt 0.628029 0.676665
vt 0.617235 0.899351
vt 0.611275 0.926298
vt 0.628618 0.664495
vt 0.628550 0.663957
vt 0.459815 0.013725
vt 0.576498 0.047719
vt 0.577451 0.060054
vt 0.581089 0.060998
vt 0.628909 0.643144
vt 0.925875 0.634396
vt 0.363535 0.609623
vt 0.331021 0.497911
vt 0.557361 0.042060
vt 0.091274 0.516400
vt 0.097207 0.503076
vt 0.086224 0.501687
vt 0.657185 0.287592
vt 0.653497 0.297947
vt 0.651560 0.300222
vt 0.654633 0.316688
vt 0.634501 0.752069
vt 0.106133 0.534396
vt 0.299872 0.553371
vt 0.925377 0.253985
vt 0.925081 0.303538
vt 0.925952 0.157652
vt 0.907625 0.171362
vt 0.407477 0.170635
vt 0.400559 0.177006
vt 0.413199 0.171034
vt 0.458541 0.258431
vt 0.445146 0.316843
vt 0.430001 0.269345
vt 0.797522 0.020932
vt 0.797446 0.021436
vt 0.815758 0.287959
vt 0.809314 0.258795
vt 0.798061 0.033736
vt 0.798332 0.032793
vt 0.457239 0.012302
vt 0.607729 0.382572
vt 0.611365 0.381626
vt 0.612316 0.369291
vt 0.797143 -0.000000
vt 0.873535 0.025188
vt 0.148378 0.613400
vt 0.180892 0.501687
vt 0.631439 0.363624
vt 0.102859 0.573394
vt 0.093863 0.574532
vt 0.102859 0.540385
vt 0.295499 0.511024
vt 0.291190 0.497911
vt 0.314333 0.537252
vt 0.294865 0.532852
vt 0.330133 0.713690
vt 0.944901 0.754965
vt 0.926574 0.741177
vt 0.927447 0.887825
vt 0.927179 0.842739
vt 0.507045 0.467336
vt 0.507599 0.466135
vt 0.524063 0.360727
vt 0.549328 0.375645
vt 0.537335 0.317599
vt 0.494165 0.457879
vt 0.500544 0.467215
vt 0.720624 0.254603
vt 0.732758 0.029367
vt 0.740136 -0.000000
vt 0.719961 0.266913
vt 0.720052 0.267414
vt 0.548291 0.622038
vt 0.660437 0.043133
vt 0.659169 0.042367
vt 0.659524 0.053524
vt 0.663136 0.054824
vt 0.719635 0.288353
vt 0.978993 0.609204
vt 0.358191 0.634862
vt 0.389381 0.748996
vt 0.640199 0.034816
vt 0.669267 0.306818
vt 0.674707 0.319649
vt 0.663048 0.287592
vt 0.672596 0.287952
vt 0.268018 0.537280
vt 0.272332 0.524140
vt 0.323485 0.504385
vt 0.281465 0.553492
vt 0.940933 0.554726
vt 0.940661 0.600231
vt 0.941541 0.453147
vt 0.922638 0.467359
vt 0.412996 0.465102
vt 0.420431 0.458410
vt 0.363535 0.374022
vt 0.376314 0.316843
vt 0.389963 0.360642
vt 0.798153 0.585401
vt 0.798265 0.584873
vt 0.775420 0.321586
vt 0.784139 0.349188
vt 0.797533 0.572660
vt 0.797143 0.573683
vt 0.364720 0.620537
vt 0.692204 0.376421
vt 0.695816 0.375122
vt 0.696172 0.363965
vt 0.694903 0.364731
vt 0.798626 0.606257
vt 0.889115 0.321586
vt 0.403344 0.748996
vt 0.372153 0.863131
vt 0.715146 0.356421
vt 0.106133 0.540395
vt 0.110708 0.527231
vt 0.111467 0.526293
vt 0.106133 0.508628
vt 0.122199 0.559426
vt 0.125849 0.569942
vt 0.105462 0.540395
vt 0.123333 0.540395
vt 0.634599 0.694941
vt 0.125849 0.507948
vt 0.306034 0.553494
s 0
usemtl Material
f 232/1/1 155/3/1 3/2/1
f 245/4/2 155/3/2 232/1/2
f 303/5/3 316/7/3 314/6/3
f 284/8/4 305/10/4 278/9/4
f 309/11/5 319/13/5 308/12/5
f 298/14/6 310/16/6 299/15/6
f 292/17/7 300/18/7 299/15/7
f 294/19/7 298/14/7 301/20/7
f 290/21/7 179/23/7 3/22/7
f 278/24/8 274/26/8 282/25/8
f 282/27/9 326/29/9 3/28/9
f 282/25/10 245/4/10 265/30/10
f 292/31/9 223/33/9 290/32/9
f 273/34/11 223/36/11 292/35/11
f 288/37/4 286/39/4 273/38/4
f 273/40/12 286/41/12 290/21/12
f 297/42/9 210/44/9 296/43/9
f 259/45/11 210/47/11 297/46/11
f 295/48/4 294/50/4 259/49/4
f 259/51/12 294/19/12 296/52/12
f 301/53/9 194/55/9 300/54/9
f 194/56/11 301/58/11 298/57/11
f 298/59/4 299/61/4 239/60/4
f 239/62/12 299/15/12 300/18/12
f 186/63/3 154/65/3 199/64/3
f 270/66/13 176/68/13 229/67/13
f 293/69/14 255/71/14 242/70/14
f 304/72/15 255/74/15 249/73/15
f 281/75/16 303/77/16 176/76/16
f 329/78/17 275/80/17 261/79/17
f 277/81/18 229/67/18 235/82/18
f 176/68/19 270/66/19 199/83/19
f 186/63/20 281/85/20 176/84/20
f 279/86/21 293/69/21 289/87/21
f 312/88/22 313/90/22 285/89/22
f 235/91/23 309/93/23 308/92/23
f 287/94/24 291/96/24 283/95/24
f 270/97/25 289/99/25 205/98/25
f 255/100/26 340/102/26 249/101/26
f 342/103/27 339/105/27 338/104/27
f 276/106/28 261/79/28 270/107/28
f 261/79/29 275/80/29 289/108/29
f 345/109/30 293/111/30 347/110/30
f 346/112/31 276/106/31 348/113/31
f 283/114/32 285/89/32 281/75/32
f 291/96/33 287/94/33 289/87/33
f 281/115/34 289/87/34 287/94/34
f 285/116/35 283/95/35 291/96/35
f 281/85/36 186/63/36 205/98/36
f 183/117/3 171/119/3 102/118/3
f 188/120/37 146/122/37 227/121/37
f 323/123/38 213/125/38 272/124/38
f 317/126/15 213/128/15 326/127/15
f 316/129/39 251/131/39 146/130/39
f 357/132/40 234/134/40 358/133/40
f 196/135/18 188/120/18 238/136/18
f 171/137/19 227/121/19 146/122/19
f 146/138/41 251/140/41 164/139/41
f 267/141/42 272/124/42 244/142/42
f 323/143/43 257/145/43 325/144/43
f 188/146/43 320/148/43 318/147/43
f 253/149/44 268/151/44 264/150/44
f 183/117/45 267/153/45 227/152/45
f 366/154/46 208/156/46 365/155/46
f 364/157/47 366/159/47 362/158/47
f 227/160/48 216/162/48 236/161/48
f 267/163/49 234/134/49 216/162/49
f 244/164/50 371/166/50 352/165/50
f 368/167/50 238/169/50 370/168/50
f 251/170/51 257/171/51 253/149/51
f 267/141/52 264/150/52 268/151/52
f 264/150/53 267/141/53 251/170/53
f 268/151/54 253/149/54 257/171/54
f 183/117/36 164/139/36 251/140/36
f 172/172/55 329/174/55 330/173/55
f 269/175/56 344/177/56 345/176/56
f 159/178/57 335/180/57 219/179/57
f 224/181/58 337/183/58 340/182/58
f 243/184/59 374/186/59 159/185/59
f 78/187/60 330/189/60 332/188/60
f 327/190/61 271/192/61 336/191/61
f 260/193/62 269/195/62 250/194/62
f 219/196/63 241/198/63 237/197/63
f 339/199/64 219/179/64 338/200/64
f 385/201/65 383/203/65 224/202/65
f 266/204/66 388/206/66 258/205/66
f 248/207/67 378/209/67 386/208/67
f 266/204/68 172/211/68 78/210/68
f 230/212/55 220/214/55 191/213/55
f 167/215/69 241/217/69 248/216/69
f 135/218/70 237/197/70 241/198/70
f 214/219/67 200/220/67 135/218/67
f 214/219/68 202/222/68 191/221/68
f 191/223/60 220/225/60 240/224/60
f 248/60/71 230/212/71 202/226/71
f 246/227/72 220/214/72 230/212/72
f 240/224/73 237/229/73 135/228/73
f 207/230/55 197/232/55 178/231/55
f 148/233/69 250/235/69 252/234/69
f 125/236/70 260/193/70 250/194/70
f 192/237/67 182/238/67 125/236/67
f 182/238/68 192/237/68 185/239/68
f 178/240/60 197/242/60 256/241/60
f 207/230/71 254/244/71 262/243/71
f 262/243/72 258/245/72 197/232/72
f 256/241/73 260/247/73 125/246/73
f 334/248/74 331/250/74 263/249/74
f 271/192/75 263/249/75 266/251/75
f 271/192/76 269/175/76 345/176/76
f 172/172/77 266/253/77 331/252/77
f 356/254/78 357/256/78 150/255/78
f 362/158/79 231/257/79 364/157/79
f 349/258/80 187/260/80 351/259/80
f 366/261/81 365/263/81 190/262/81
f 391/264/82 204/266/82 392/265/82
f 33/267/83 142/269/83 359/268/83
f 225/270/84 352/272/84 233/271/84
f 221/273/85 399/275/85 397/274/85
f 203/276/86 187/278/86 198/277/86
f 361/279/87 190/281/87 360/280/87
f 231/282/88 402/284/88 400/283/88
f 218/285/89 405/287/89 226/286/89
f 403/288/85 396/290/85 209/289/85
f 33/291/90 150/292/90 226/286/90
f 166/293/78 189/295/78 195/294/78
f 209/296/91 203/298/91 143/297/91
f 143/299/92 203/301/92 198/300/92
f 93/302/85 177/304/85 184/303/85
f 166/305/90 180/306/90 184/303/90
f 166/307/83 201/309/83 189/308/83
f 180/310/93 209/312/93 184/311/93
f 189/295/94 206/314/94 204/313/94
f 93/315/95 198/316/95 201/309/95
f 162/317/78 152/319/78 175/318/78
f 212/320/91 211/322/91 109/321/91
f 109/323/96 211/325/96 221/324/96
f 109/326/85 66/328/85 158/327/85
f 152/329/90 162/331/90 169/330/90
f 217/332/83 175/334/83 152/333/83
f 215/335/93 212/336/93 162/317/93
f 181/337/94 175/318/94 218/338/94
f 66/339/95 221/340/95 217/332/95
f 358/341/97 225/270/97 226/342/97
f 226/342/98 225/270/98 233/271/98
f 233/271/99 367/344/99 369/343/99
f 150/255/100 357/256/100 358/345/100
f 435/346/101 408/348/101 434/347/101
f 385/349/102 412/351/102 51/350/102
f 411/352/4 436/354/4 51/353/4
f 438/355/103 376/357/103 439/356/103
f 407/358/104 379/360/104 377/359/104
f 433/361/105 437/363/105 413/362/105
f 381/364/106 383/365/106 439/356/106
f 405/366/107 423/368/107 390/367/107
f 399/369/108 400/371/108 417/370/108
f 419/372/9 427/374/9 420/373/9
f 429/375/109 394/377/109 396/376/109
f 404/378/110 405/380/110 406/379/110
f 420/373/111 427/374/111 424/381/111
f 402/382/112 432/384/112 27/383/112
f 107/385/113 116/387/113 12/386/113
f 128/388/114 413/390/114 46/389/114
f 23/391/115 121/393/115 46/392/115
f 134/394/116 410/396/116 407/395/116
f 128/397/117 160/399/117 161/398/117
f 75/400/118 134/394/118 153/401/118
f 174/402/119 173/403/119 107/385/119
f 107/385/120 75/405/120 140/404/120
f 144/406/121 89/407/121 107/385/121
f 151/408/122 128/397/122 89/409/122
f 153/410/123 134/411/123 128/388/123
f 144/406/124 145/413/124 147/412/124
f 153/401/125 156/415/125 138/414/125
f 145/413/126 140/404/126 138/416/126
f 144/417/127 147/419/127 149/418/127
f 149/420/128 156/421/128 153/410/128
f 156/422/3 149/418/3 147/419/3
f 118/423/129 137/425/129 100/424/129
f 132/426/130 173/403/130 174/402/130
f 85/427/131 163/429/131 161/428/131
f 124/430/132 157/432/132 132/431/132
f 85/427/133 59/434/133 100/433/133
f 132/435/134 137/437/134 118/436/134
f 59/434/135 85/427/135 124/438/135
f 137/425/136 132/426/136 112/439/136
f 124/440/137 85/442/137 161/441/137
f 6/443/113 80/445/113 70/444/113
f 18/446/114 419/448/114 420/447/114
f 86/449/115 13/451/115 18/450/115
f 40/452/138 422/454/138 417/453/138
f 95/455/139 129/457/139 127/456/139
f 122/458/140 103/459/140 40/452/140
f 70/444/141 139/461/141 141/460/141
f 113/462/142 40/463/142 70/444/142
f 70/444/143 53/465/143 114/464/143
f 53/466/144 95/455/144 120/467/144
f 95/468/145 103/470/145 122/469/145
f 115/471/146 114/464/146 117/472/146
f 111/473/147 123/474/147 122/458/147
f 111/475/148 113/462/148 115/471/148
f 119/476/149 117/478/149 114/477/149
f 122/469/128 123/480/128 119/479/128
f 117/478/3 119/476/3 123/481/3
f 62/482/150 106/484/150 82/483/150
f 141/460/151 139/461/151 98/485/151
f 130/486/152 133/488/152 76/487/152
f 126/489/153 98/491/153 131/490/153
f 76/487/154 62/493/154 29/492/154
f 82/494/155 106/496/155 98/495/155
f 90/497/156 44/499/156 29/498/156
f 76/500/157 98/485/157 106/484/157
f 129/501/158 44/503/158 90/502/158
f 35/504/159 42/506/159 1/505/159
f 9/507/160 427/509/160 426/508/160
f 7/510/161 50/512/161 9/511/161
f 429/513/162 19/515/162 428/514/162
f 57/516/163 94/518/163 96/517/163
f 94/519/164 99/521/164 92/520/164
f 19/515/165 67/523/165 88/522/165
f 110/524/166 108/525/166 35/504/166
f 35/504/167 19/527/167 77/526/167
f 79/528/168 25/529/168 35/504/168
f 87/530/169 57/516/169 25/531/169
f 88/532/170 67/534/170 57/533/170
f 79/528/171 81/536/171 83/535/171
f 88/522/172 91/538/172 73/537/172
f 81/536/173 77/526/173 73/539/173
f 79/540/174 83/542/174 84/541/174
f 84/541/175 91/544/175 88/543/175
f 91/544/3 84/541/3 83/542/3
f 47/545/176 71/547/176 32/546/176
f 64/548/177 108/525/177 110/524/177
f 97/549/178 37/551/178 101/550/178
f 55/552/164 92/520/164 64/553/164
f 16/554/179 32/555/179 37/551/179
f 64/556/180 71/558/180 47/557/180
f 22/559/181 55/560/181 47/557/181
f 64/548/182 37/561/182 32/546/182
f 55/562/183 22/564/183 96/563/183
f 2/565/159 21/567/159 17/566/159
f 5/568/160 436/570/160 437/569/160
f 26/571/161 4/573/161 5/572/161
f 438/574/184 439/576/184 34/575/184
f 30/577/185 60/579/185 58/578/185
f 52/580/186 34/575/186 10/581/186
f 17/566/187 72/583/187 74/582/187
f 39/584/188 10/585/188 17/566/188
f 17/566/189 14/587/189 41/586/189
f 14/588/190 30/577/190 49/589/190
f 30/590/191 34/592/191 52/591/191
f 43/593/192 41/586/192 45/594/192
f 38/595/193 54/596/193 52/580/193
f 38/597/194 39/584/194 43/593/194
f 48/598/195 45/600/195 41/599/195
f 52/601/175 54/602/175 48/598/175
f 45/600/3 48/598/3 54/602/3
f 15/603/196 36/605/196 24/604/196
f 74/582/197 72/583/197 31/606/197
f 61/607/198 20/609/198 11/608/198
f 56/610/199 31/612/199 63/611/199
f 20/609/200 15/614/200 8/613/200
f 24/615/201 36/617/201 31/616/201
f 28/618/202 11/608/202 8/613/202
f 20/619/203 31/606/203 36/605/203
f 60/620/204 11/622/204 28/621/204
f 232/1/1 3/2/1 179/623/1
f 245/4/205 232/1/205 265/30/205
f 316/7/3 302/625/3 315/624/3
f 302/625/3 316/7/3 303/5/3
f 179/626/4 284/8/4 232/627/4
f 232/627/4 284/8/4 265/628/4
f 278/9/4 305/10/4 304/629/4
f 179/626/4 305/10/4 284/8/4
f 318/630/5 307/632/5 314/631/5
f 314/631/5 307/632/5 303/633/5
f 307/632/5 318/630/5 306/634/5
f 319/13/5 309/11/5 320/635/5
f 320/635/5 306/634/5 318/630/5
f 309/11/5 306/634/5 320/635/5
f 274/26/5 319/13/5 317/636/5
f 304/637/5 308/12/5 278/24/5
f 278/24/5 319/13/5 274/26/5
f 308/12/5 319/13/5 278/24/5
f 321/638/206 300/18/206 292/17/206
f 300/18/206 321/638/206 301/20/206
f 301/20/206 321/638/206 296/52/206
f 323/639/207 297/641/207 322/640/207
f 322/640/206 297/641/206 321/638/206
f 321/638/206 297/641/206 296/52/206
f 295/642/6 310/16/6 294/19/6
f 294/19/6 310/16/6 298/14/6
f 297/641/208 242/643/208 295/642/208
f 323/639/209 242/643/209 297/641/209
f 325/644/207 312/645/207 323/639/207
f 302/646/207 324/648/207 315/647/207
f 324/648/207 313/649/207 325/644/207
f 323/639/210 312/645/210 242/643/210
f 313/649/207 324/648/207 302/646/207
f 312/645/207 325/644/207 313/649/207
f 310/16/6 295/642/6 311/650/6
f 311/650/211 295/642/211 242/643/211
f 299/15/6 310/16/6 288/651/6
f 292/17/7 299/15/7 288/651/7
f 294/19/7 301/20/7 296/52/7
f 179/23/212 286/41/212 305/652/212
f 305/652/213 288/651/213 310/16/213
f 286/41/214 288/651/214 305/652/214
f 290/21/215 326/653/215 292/17/215
f 292/17/216 326/653/216 321/638/216
f 179/23/7 290/21/7 286/41/7
f 290/21/217 3/22/217 326/653/217
f 278/24/8 282/25/8 284/654/8
f 282/27/9 155/656/9 245/655/9
f 326/29/9 274/658/9 317/657/9
f 282/27/9 3/28/9 155/656/9
f 326/29/9 282/27/9 274/658/9
f 282/25/218 265/30/218 284/654/218
f 273/34/11 292/35/11 288/659/11
f 273/40/12 290/21/12 223/660/12
f 259/45/11 297/46/11 295/661/11
f 259/51/12 296/52/12 210/662/12
f 194/56/11 298/57/11 239/659/11
f 239/62/12 300/18/12 194/663/12
f 186/63/3 199/64/3 205/98/3
f 270/66/219 229/67/219 277/81/219
f 293/69/220 242/70/220 285/116/220
f 311/664/15 255/74/15 310/665/15
f 310/665/15 255/74/15 305/666/15
f 304/72/15 235/668/15 308/667/15
f 304/72/15 249/73/15 235/668/15
f 255/74/221 311/664/221 242/669/221
f 305/666/15 255/74/15 304/72/15
f 302/670/222 285/89/222 313/90/222
f 176/76/16 303/77/16 229/671/16
f 229/671/222 307/673/222 306/672/222
f 229/671/16 303/77/16 307/673/16
f 302/670/222 281/75/222 285/89/222
f 303/77/223 281/75/223 302/670/223
f 333/674/224 275/80/224 334/675/224
f 334/675/224 275/80/224 331/676/224
f 336/677/225 279/679/225 327/678/225
f 327/678/17 279/679/17 333/674/17
f 275/80/17 333/674/17 279/679/17
f 335/680/225 328/681/225 276/106/225
f 276/106/225 328/681/225 261/79/225
f 332/682/17 261/79/17 328/681/17
f 330/683/17 261/79/17 332/682/17
f 275/80/17 329/78/17 331/676/17
f 329/78/17 261/79/17 330/683/17
f 277/81/18 235/82/18 249/684/18
f 176/68/19 199/83/19 154/685/19
f 186/63/20 176/84/20 154/65/20
f 279/86/226 289/87/226 275/686/226
f 312/88/23 285/89/23 242/687/23
f 309/93/22 235/91/22 306/672/22
f 306/672/22 235/91/22 229/671/22
f 287/94/227 283/95/227 280/688/227
f 270/97/228 205/98/228 199/64/228
f 341/689/229 255/100/229 343/690/229
f 343/690/229 255/100/229 293/111/229
f 249/101/230 342/692/230 277/691/230
f 342/692/231 249/101/231 339/693/231
f 339/693/26 249/101/26 337/694/26
f 340/102/232 255/100/232 341/689/232
f 249/101/26 340/102/26 337/694/26
f 276/106/233 270/107/233 277/691/233
f 261/79/234 289/108/234 270/107/234
f 347/110/30 279/679/30 336/677/30
f 279/679/30 347/110/30 293/111/30
f 293/111/31 344/695/31 343/690/31
f 344/695/30 293/111/30 345/109/30
f 348/113/31 277/691/31 342/692/31
f 277/691/31 348/113/31 276/106/31
f 276/106/30 346/112/30 335/680/30
f 283/114/235 281/75/235 280/696/235
f 291/96/236 289/87/236 293/69/236
f 281/115/237 287/94/237 280/688/237
f 285/116/238 291/96/238 293/69/238
f 281/85/239 205/98/239 289/99/239
f 183/117/3 102/118/3 164/139/3
f 188/120/240 227/121/240 238/136/240
f 323/123/241 272/124/241 257/171/241
f 326/127/15 213/128/15 321/697/15
f 321/697/15 213/128/15 322/698/15
f 322/698/15 213/128/15 323/699/15
f 208/700/15 317/126/15 196/701/15
f 196/701/15 317/126/15 319/702/15
f 208/700/15 213/128/15 317/126/15
f 314/703/242 188/146/242 318/147/242
f 251/131/39 315/704/39 257/145/39
f 257/145/242 324/705/242 325/144/242
f 257/145/39 315/704/39 324/705/39
f 314/703/242 146/130/242 188/146/242
f 316/129/242 146/130/242 314/703/242
f 315/704/39 251/131/39 316/129/39
f 350/706/243 244/164/243 352/165/243
f 216/162/40 353/707/40 236/161/40
f 236/161/243 349/709/243 351/708/243
f 353/707/40 349/709/40 236/161/40
f 353/707/40 216/162/40 359/710/40
f 350/706/243 234/134/243 244/164/243
f 355/711/40 234/134/40 350/706/40
f 216/162/40 356/712/40 359/710/40
f 354/713/40 234/134/40 355/711/40
f 358/133/40 234/134/40 354/713/40
f 234/134/40 357/132/40 216/162/40
f 216/162/40 357/132/40 356/712/40
f 196/135/18 238/136/18 208/714/18
f 171/137/19 146/122/19 102/715/19
f 146/138/41 164/139/41 102/118/41
f 267/141/244 244/142/244 234/716/244
f 320/148/245 196/718/245 319/717/245
f 196/718/245 320/148/245 188/146/245
f 253/149/246 264/150/246 247/719/246
f 183/117/247 227/152/247 171/119/247
f 365/155/46 208/156/46 360/720/46
f 360/720/248 208/156/248 361/721/248
f 361/721/248 208/156/248 363/722/248
f 363/722/248 208/156/248 238/169/248
f 213/723/249 364/725/249 272/724/249
f 213/723/250 366/154/250 364/725/250
f 213/723/46 208/156/46 366/154/46
f 227/160/251 236/161/251 238/169/251
f 267/163/252 216/162/252 227/160/252
f 367/726/253 272/724/253 369/727/253
f 369/727/253 272/724/253 364/725/253
f 272/724/253 367/726/253 244/164/253
f 367/726/50 371/166/50 244/164/50
f 370/168/50 236/161/50 351/708/50
f 236/161/50 370/168/50 238/169/50
f 238/169/253 368/167/253 363/722/253
f 251/170/254 253/149/254 247/719/254
f 267/141/255 268/151/255 272/124/255
f 264/150/256 251/170/256 247/719/256
f 268/151/257 257/171/257 272/124/257
f 183/117/258 251/140/258 267/153/258
f 172/172/55 330/173/55 78/728/55
f 344/177/56 269/175/56 343/729/56
f 343/729/56 269/175/56 341/730/56
f 341/730/259 228/732/259 340/731/259
f 228/732/259 341/730/259 269/175/259
f 328/733/260 159/178/260 332/188/260
f 219/179/261 346/735/261 348/734/261
f 335/180/262 159/178/262 328/733/262
f 219/179/261 335/180/261 346/735/261
f 224/181/58 340/182/58 228/736/58
f 375/737/263 243/184/263 372/738/263
f 372/738/264 243/184/264 248/207/264
f 243/184/67 159/185/67 246/739/67
f 266/204/265 374/186/265 373/740/265
f 374/186/59 243/184/59 375/737/59
f 159/185/59 374/186/59 266/204/59
f 78/187/60 332/188/60 159/178/60
f 336/191/61 271/192/61 347/741/61
f 271/192/61 327/190/61 263/249/61
f 263/249/266 327/190/266 333/742/266
f 380/743/67 256/745/67 379/744/67
f 379/744/67 256/745/67 377/746/67
f 252/747/267 266/204/267 254/748/267
f 269/195/268 260/193/268 384/749/268
f 384/749/269 260/193/269 382/750/269
f 250/194/270 266/204/270 252/747/270
f 380/743/67 260/193/67 256/745/67
f 250/194/271 269/195/271 266/204/271
f 382/750/67 260/193/67 380/743/67
f 381/751/272 219/196/272 383/203/272
f 159/185/67 240/752/67 246/739/67
f 159/185/67 237/197/67 240/752/67
f 376/753/67 241/198/67 381/751/67
f 381/751/63 241/198/63 219/196/63
f 248/207/67 376/753/67 378/209/67
f 241/198/67 376/753/67 248/207/67
f 219/196/273 237/197/273 159/185/273
f 338/200/64 219/179/64 342/754/64
f 342/754/64 219/179/64 348/734/64
f 219/179/64 339/199/64 224/755/64
f 224/755/274 339/199/274 337/756/274
f 385/201/65 269/195/65 384/749/65
f 269/195/65 385/201/65 228/757/65
f 228/757/65 385/201/65 224/202/65
f 224/202/65 383/203/65 219/196/65
f 266/204/275 262/758/275 254/748/275
f 258/205/67 387/759/67 256/745/67
f 256/745/67 387/759/67 377/746/67
f 266/204/276 258/205/276 262/758/276
f 388/206/277 266/204/277 373/740/277
f 387/759/66 258/205/66 388/206/66
f 248/207/66 386/208/66 372/738/66
f 266/204/68 78/210/68 159/185/68
f 230/212/55 191/213/55 202/226/55
f 167/215/278 248/216/278 214/760/278
f 135/218/70 241/198/70 167/761/70
f 214/219/67 135/218/67 167/761/67
f 214/219/68 191/221/68 200/220/68
f 200/762/60 191/223/60 240/224/60
f 240/224/60 220/225/60 246/763/60
f 230/212/71 248/60/71 243/764/71
f 248/60/71 202/226/71 214/765/71
f 246/227/279 230/212/279 243/764/279
f 240/224/280 135/228/280 200/762/280
f 207/230/55 178/231/55 185/766/55
f 148/233/69 252/234/69 192/767/69
f 125/236/281 250/194/281 148/768/281
f 192/237/67 125/236/67 148/768/67
f 182/238/68 185/239/68 178/769/68
f 182/770/60 178/240/60 256/241/60
f 256/241/60 197/242/60 258/771/60
f 254/244/71 185/766/71 252/336/71
f 252/336/71 185/766/71 192/772/71
f 185/766/71 254/244/71 207/230/71
f 262/243/72 197/232/72 207/230/72
f 256/241/73 125/246/73 182/770/73
f 334/248/282 263/249/282 333/742/282
f 263/249/283 331/250/283 266/251/283
f 271/192/284 266/251/284 269/175/284
f 271/192/285 345/176/285 347/741/285
f 172/172/286 331/252/286 329/174/286
f 356/254/78 150/255/78 33/773/78
f 364/157/79 231/257/79 369/343/79
f 231/257/79 362/158/79 193/774/79
f 193/774/287 362/158/287 366/159/287
f 351/259/80 187/260/80 370/775/80
f 187/260/80 353/776/80 142/269/80
f 142/269/288 353/776/288 359/268/288
f 187/260/80 349/258/80 353/776/80
f 366/261/81 190/262/81 193/777/81
f 392/265/289 142/779/289 390/778/289
f 390/778/290 142/779/290 226/286/290
f 142/779/85 204/266/85 206/780/85
f 392/265/291 204/266/291 142/779/291
f 204/266/292 389/781/292 209/289/292
f 389/781/292 204/266/292 391/264/292
f 33/267/83 359/268/83 356/782/83
f 350/783/293 225/270/293 355/784/293
f 233/271/294 352/272/294 371/785/294
f 352/272/295 225/270/295 350/783/295
f 226/286/296 212/787/296 215/786/296
f 226/286/297 211/788/297 212/787/297
f 399/275/298 221/273/298 400/283/298
f 400/283/299 221/273/299 231/282/299
f 217/789/85 397/274/85 395/790/85
f 231/282/300 211/788/300 226/286/300
f 221/273/85 397/274/85 217/789/85
f 231/282/301 221/273/301 211/788/301
f 393/791/85 209/289/85 394/792/85
f 394/792/85 209/289/85 396/290/85
f 201/793/85 142/779/85 206/780/85
f 187/278/302 398/795/302 401/794/302
f 187/278/86 203/276/86 398/795/86
f 398/795/85 203/276/85 393/791/85
f 198/277/85 142/779/85 201/793/85
f 393/791/85 203/276/85 209/289/85
f 198/277/303 187/278/303 142/779/303
f 360/280/87 190/281/87 365/796/87
f 190/281/87 361/279/87 187/260/87
f 187/260/304 368/797/304 370/775/304
f 361/279/304 363/798/304 187/260/304
f 368/797/304 187/260/304 363/798/304
f 402/284/88 190/799/88 401/794/88
f 401/794/88 190/799/88 187/278/88
f 190/799/88 402/284/88 193/800/88
f 193/800/88 402/284/88 231/282/88
f 406/801/89 218/285/89 404/802/89
f 404/802/85 217/789/85 395/790/85
f 218/285/85 217/789/85 404/802/85
f 222/803/296 226/286/296 215/786/296
f 218/285/82 226/286/82 222/803/82
f 226/286/89 405/287/89 390/778/89
f 405/287/89 218/285/89 406/801/89
f 403/288/89 209/289/89 389/781/89
f 33/291/90 226/286/90 142/779/90
f 166/293/78 195/294/78 180/310/78
f 209/296/305 143/297/305 184/804/305
f 143/299/92 198/300/92 93/805/92
f 93/302/85 184/303/85 143/806/85
f 166/305/90 184/303/90 177/304/90
f 206/807/83 189/308/83 201/309/83
f 201/309/83 166/307/83 177/808/83
f 209/312/93 195/294/93 204/313/93
f 195/294/93 209/312/93 180/310/93
f 189/295/94 204/313/94 195/294/94
f 93/315/306 201/309/306 177/808/306
f 162/317/78 175/318/78 181/337/78
f 212/320/91 109/321/91 169/809/91
f 109/323/92 221/324/92 66/810/92
f 109/326/85 158/327/85 169/330/85
f 152/329/90 169/330/90 158/327/90
f 175/334/83 217/332/83 218/811/83
f 217/332/83 152/333/83 158/812/83
f 215/335/93 181/337/93 222/813/93
f 181/337/93 215/335/93 162/317/93
f 162/317/93 212/336/93 169/765/93
f 181/337/94 218/338/94 222/813/94
f 66/339/95 217/332/95 158/812/95
f 355/784/307 225/270/307 354/814/307
f 354/814/97 225/270/97 358/341/97
f 226/342/308 233/271/308 231/257/308
f 367/344/309 233/271/309 371/785/309
f 233/271/310 369/343/310 231/257/310
f 150/255/311 358/345/311 226/815/311
f 374/816/101 407/818/101 373/817/101
f 373/817/101 407/818/101 388/819/101
f 407/818/312 434/347/312 408/348/312
f 374/816/101 434/347/101 407/818/101
f 408/348/101 435/346/101 409/820/101
f 409/820/312 435/346/312 433/821/312
f 412/351/102 385/349/102 410/822/102
f 410/822/102 382/824/102 380/823/102
f 410/822/102 384/825/102 382/824/102
f 51/350/102 412/351/102 411/826/102
f 384/825/102 410/822/102 385/349/102
f 436/354/4 411/352/4 437/363/4
f 437/363/4 411/352/4 413/362/4
f 386/827/313 374/829/313 372/828/313
f 372/828/314 374/829/314 375/830/314
f 374/829/315 386/827/315 434/831/315
f 438/355/138 439/356/138 440/832/138
f 434/831/316 386/827/316 438/355/316
f 376/357/317 438/355/317 378/833/317
f 378/833/317 438/355/317 386/827/317
f 407/358/104 387/835/104 388/834/104
f 407/358/104 377/359/104 387/835/104
f 380/823/318 379/360/318 410/822/318
f 410/822/319 379/360/319 407/358/319
f 433/361/105 413/362/105 409/836/105
f 436/837/106 441/839/106 51/838/106
f 51/838/106 441/839/106 385/840/106
f 385/840/106 439/356/106 383/365/106
f 441/839/106 439/356/106 385/840/106
f 376/357/106 381/364/106 439/356/106
f 425/841/107 415/843/107 424/842/107
f 414/844/320 423/368/320 416/845/320
f 416/845/107 423/368/107 405/366/107
f 425/841/107 414/844/107 415/843/107
f 392/846/107 390/367/107 423/368/107
f 423/368/107 414/844/107 425/841/107
f 418/847/108 27/849/108 419/848/108
f 27/849/108 418/847/108 402/850/108
f 402/850/108 417/370/108 400/371/108
f 418/847/108 417/370/108 402/850/108
f 399/369/108 417/370/108 397/851/108
f 427/374/9 419/372/9 426/852/9
f 426/852/9 419/372/9 27/853/9
f 429/375/321 403/855/321 423/854/321
f 423/854/322 391/857/322 392/856/322
f 391/857/323 403/855/323 389/858/323
f 423/854/322 403/855/322 391/857/322
f 393/859/324 430/861/324 428/860/324
f 430/861/325 393/859/325 429/375/325
f 429/375/109 396/376/109 403/855/109
f 394/377/326 429/375/326 393/859/326
f 422/862/327 397/851/327 417/370/327
f 422/862/328 421/863/328 397/851/328
f 397/851/329 416/865/329 395/864/329
f 421/863/330 416/865/330 397/851/330
f 405/380/331 404/378/331 416/865/331
f 404/378/329 395/864/329 416/865/329
f 420/373/111 424/381/111 415/866/111
f 431/867/112 401/868/112 428/860/112
f 428/860/112 398/869/112 393/859/112
f 428/860/112 401/868/112 398/869/112
f 27/383/112 432/384/112 426/870/112
f 432/384/112 402/382/112 431/867/112
f 401/868/112 431/867/112 402/382/112
f 107/385/113 12/386/113 75/405/113
f 408/871/114 128/388/114 134/411/114
f 46/389/114 411/873/114 23/872/114
f 23/872/114 411/873/114 412/874/114
f 409/875/114 128/388/114 408/871/114
f 46/389/114 413/390/114 411/873/114
f 413/390/114 128/388/114 409/875/114
f 121/393/332 23/391/332 116/387/332
f 116/387/333 23/391/333 12/386/333
f 412/876/116 12/878/116 23/877/116
f 12/878/334 410/396/334 75/400/334
f 75/400/335 410/396/335 134/394/335
f 134/394/116 407/395/116 408/879/116
f 410/396/116 12/878/116 412/876/116
f 160/399/132 165/881/132 157/880/132
f 165/881/336 160/399/336 121/882/336
f 121/882/337 128/397/337 46/883/337
f 89/409/338 163/885/338 168/884/338
f 89/409/117 161/398/117 163/885/117
f 121/882/339 160/399/339 128/397/339
f 128/397/117 161/398/117 89/409/117
f 75/400/118 153/401/118 140/886/118
f 174/402/340 89/407/340 168/887/340
f 107/385/119 173/403/119 116/387/119
f 116/387/341 165/888/341 121/393/341
f 173/403/119 170/889/119 116/387/119
f 165/888/341 116/387/341 170/889/341
f 174/402/119 107/385/119 89/407/119
f 107/385/120 140/404/120 145/413/120
f 144/406/121 107/385/121 145/413/121
f 151/408/122 89/409/122 144/890/122
f 153/410/123 128/388/123 151/891/123
f 153/401/342 138/414/342 140/886/342
f 145/413/343 138/416/343 147/412/343
f 144/417/344 149/418/344 151/892/344
f 149/420/345 153/410/345 151/891/345
f 156/422/3 147/419/3 138/893/3
f 118/423/129 100/424/129 59/894/129
f 132/426/130 174/402/130 112/439/130
f 163/429/131 112/896/131 168/895/131
f 168/895/131 112/896/131 174/897/131
f 112/896/131 163/429/131 85/427/131
f 173/898/132 132/431/132 170/899/132
f 170/899/132 132/431/132 165/900/132
f 157/432/132 124/430/132 160/901/132
f 165/900/132 132/431/132 157/432/132
f 85/427/133 100/433/133 112/896/133
f 132/435/134 118/436/134 124/902/134
f 59/434/346 124/438/346 118/903/346
f 137/425/136 112/439/136 100/424/136
f 124/440/347 161/441/347 160/904/347
f 6/443/113 70/444/113 40/463/113
f 419/448/114 13/906/114 418/905/114
f 18/446/114 420/447/114 95/468/114
f 95/468/114 414/907/114 103/470/114
f 420/447/114 415/908/114 95/468/114
f 414/907/114 95/468/114 415/908/114
f 419/448/114 18/446/114 13/906/114
f 6/443/333 13/451/333 80/445/333
f 80/445/348 13/451/348 86/449/348
f 416/909/138 103/459/138 414/910/138
f 103/459/138 421/911/138 40/452/138
f 40/452/349 417/453/349 6/912/349
f 6/912/350 418/914/350 13/913/350
f 6/912/351 417/453/351 418/914/351
f 421/911/352 103/459/352 416/909/352
f 422/454/138 40/452/138 421/911/138
f 130/915/353 53/466/353 133/916/353
f 95/455/354 86/918/354 18/917/354
f 86/918/355 127/456/355 131/919/355
f 131/919/153 127/456/153 126/920/153
f 129/457/139 53/466/139 130/915/139
f 95/455/356 127/456/356 86/918/356
f 129/457/139 95/455/139 53/466/139
f 122/458/140 40/452/140 113/921/140
f 136/922/357 80/445/357 131/923/357
f 131/923/357 80/445/357 86/449/357
f 80/445/141 139/461/141 70/444/141
f 70/444/358 141/460/358 53/465/358
f 53/465/359 141/460/359 133/924/359
f 139/461/141 80/445/141 136/922/141
f 113/462/142 70/444/142 115/471/142
f 70/444/143 114/464/143 115/471/143
f 53/466/144 120/467/144 114/925/144
f 95/468/145 122/469/145 120/926/145
f 111/473/360 122/458/360 113/921/360
f 111/475/343 115/471/343 117/472/343
f 119/476/361 114/477/361 120/927/361
f 122/469/362 119/479/362 120/926/362
f 117/478/3 123/481/3 111/928/3
f 62/482/150 82/483/150 29/929/150
f 141/460/363 98/485/363 76/500/363
f 130/486/152 44/931/152 129/930/152
f 76/487/152 133/488/152 141/932/152
f 130/486/152 76/487/152 44/931/152
f 131/490/153 98/491/153 136/933/153
f 136/933/153 98/491/153 139/934/153
f 98/491/153 126/489/153 90/935/153
f 90/935/153 126/489/153 127/936/153
f 76/487/154 29/492/154 44/931/154
f 82/494/155 98/495/155 90/497/155
f 90/497/156 29/498/156 82/494/156
f 76/500/157 106/484/157 62/482/157
f 129/501/364 90/502/364 127/937/364
f 35/504/159 1/505/159 19/527/159
f 424/938/160 57/533/160 425/939/160
f 425/939/160 57/533/160 67/534/160
f 57/533/160 427/509/160 9/507/160
f 9/507/160 426/508/160 7/940/160
f 7/940/160 426/508/160 432/941/160
f 427/509/160 57/533/160 424/938/160
f 50/512/365 7/510/365 42/506/365
f 42/506/366 7/510/366 1/505/366
f 429/513/367 428/514/367 430/942/367
f 431/943/368 1/945/368 432/944/368
f 432/944/368 1/945/368 7/946/368
f 428/514/369 19/515/369 431/943/369
f 1/945/369 431/943/369 19/515/369
f 19/515/370 429/513/370 67/523/370
f 67/523/368 423/948/368 425/947/368
f 67/523/368 429/513/368 423/948/368
f 94/518/371 50/950/371 99/949/371
f 50/950/372 57/516/372 9/951/372
f 25/531/373 97/953/373 101/952/373
f 25/531/163 96/517/163 97/953/163
f 94/518/374 57/516/374 50/950/374
f 57/516/163 96/517/163 25/531/163
f 19/515/165 88/522/165 77/954/165
f 110/524/166 25/529/166 104/955/166
f 104/955/375 25/529/375 101/956/375
f 25/529/166 110/524/166 35/504/166
f 35/504/166 108/525/166 42/506/166
f 42/506/375 99/957/375 50/512/375
f 108/525/166 105/958/166 42/506/166
f 99/957/375 42/506/375 105/958/375
f 35/504/167 77/526/167 81/536/167
f 79/528/168 35/504/168 81/536/168
f 87/530/169 25/531/169 79/959/169
f 88/532/170 57/533/170 87/960/170
f 88/522/376 73/537/376 77/954/376
f 81/536/377 73/539/377 83/535/377
f 79/540/378 84/541/378 87/961/378
f 84/541/379 88/543/379 87/961/379
f 91/544/3 83/542/3 73/962/3
f 47/545/176 32/546/176 16/963/176
f 64/548/177 110/524/177 37/561/177
f 101/550/178 37/551/178 104/964/178
f 104/964/178 37/551/178 110/965/178
f 37/551/178 97/549/178 22/966/178
f 22/966/178 97/549/178 96/967/178
f 108/968/164 64/553/164 105/969/164
f 105/969/164 64/553/164 99/521/164
f 92/520/164 55/552/164 94/519/164
f 99/521/164 64/553/164 92/520/164
f 16/554/179 37/551/179 22/966/179
f 64/556/180 47/557/180 55/560/180
f 22/559/380 47/557/380 16/970/380
f 64/548/182 32/546/182 71/547/182
f 55/562/183 96/563/183 94/971/183
f 2/565/159 17/566/159 10/585/159
f 436/570/160 4/973/160 441/972/160
f 5/568/160 437/569/160 30/590/160
f 30/590/160 435/974/160 34/592/160
f 437/569/160 433/975/160 30/590/160
f 435/974/160 30/590/160 433/975/160
f 436/570/160 5/568/160 4/973/160
f 4/573/366 21/567/366 2/565/366
f 21/567/381 4/573/381 26/571/381
f 434/976/382 34/575/382 435/977/382
f 34/575/184 439/576/184 10/581/184
f 10/581/383 439/576/383 2/978/383
f 2/978/384 441/980/384 4/979/384
f 2/978/385 439/576/385 441/980/385
f 438/574/386 34/575/386 434/976/386
f 61/981/387 14/588/387 65/982/387
f 30/577/388 26/984/388 5/983/388
f 26/984/389 58/578/389 63/985/389
f 63/985/199 58/578/199 56/986/199
f 60/579/185 14/588/185 61/981/185
f 30/577/390 58/578/390 26/984/390
f 60/579/185 30/577/185 14/588/185
f 52/580/186 10/581/186 39/987/186
f 69/988/391 21/567/391 63/989/391
f 63/989/391 21/567/391 26/571/391
f 21/567/392 72/583/392 17/566/392
f 17/566/392 74/582/392 14/587/392
f 14/587/391 68/991/391 65/990/391
f 74/582/392 68/991/392 14/587/392
f 72/583/392 21/567/392 69/988/392
f 39/584/188 17/566/188 43/593/188
f 17/566/189 41/586/189 43/593/189
f 14/588/190 49/589/190 41/992/190
f 30/590/191 52/591/191 49/993/191
f 38/595/393 52/580/393 39/987/393
f 38/597/377 43/593/377 45/594/377
f 48/598/394 41/599/394 49/994/394
f 52/601/395 48/598/395 49/994/395
f 45/600/3 54/602/3 38/995/3
f 15/603/196 24/604/196 8/996/196
f 74/582/197 31/606/197 20/619/197
f 74/997/198 20/609/198 68/998/198
f 68/998/198 20/609/198 65/999/198
f 61/607/198 11/608/198 60/1000/198
f 65/999/198 20/609/198 61/607/198
f 63/611/199 31/612/199 69/1001/199
f 69/1001/199 31/612/199 72/1002/199
f 31/612/199 56/610/199 28/1003/199
f 28/1003/199 56/610/199 58/1004/199
f 20/609/200 8/613/200 11/608/200
f 24/615/201 31/616/201 28/1005/201
f 28/618/202 8/613/202 24/1006/202
f 20/619/203 36/605/203 15/603/203
f 60/620/204 28/621/204 58/1007/204
